/* XPM */
static char *c46799659b394b46e4c7f14766e49f64PSWzML91ieaXaYVJ[] = {
/* columns rows colors chars-per-pixel */
"64 64 163 2 ",
"   c None",
".  c #161614",
"X  c #1E1713",
"o  c #1C1916",
"O  c #1C1B19",
"+  c #221712",
"@  c #251914",
"#  c #2C1D16",
"$  c #221E1B",
"%  c #281E19",
"&  c #301F17",
"*  c #25211E",
"=  c #2B221D",
"-  c #302017",
";  c #342119",
":  c #3B251C",
">  c #3F281E",
",  c #272420",
"<  c #2B2521",
"1  c #2E2824",
"2  c #332621",
"3  c #3A2721",
"4  c #332A25",
"5  c #3A2C25",
"6  c #342E29",
"7  c #3A2E29",
"8  c #37302D",
"9  c #3D322D",
"0  c #3F3633",
"q  c #3F3830",
"w  c #41271F",
"e  c #41291F",
"r  c #442C21",
"t  c #482F23",
"y  c #443027",
"u  c #4B3124",
"i  c #473228",
"p  c #43342D",
"a  c #4F352A",
"s  c #43382F",
"d  c #513427",
"f  c #52372A",
"g  c #553729",
"h  c #563729",
"j  c #57382A",
"k  c #56392B",
"l  c #55392E",
"z  c #58392B",
"x  c #583A2B",
"c  c #5A3B2C",
"v  c #5B3C2D",
"b  c #5D3D2D",
"n  c #5F3E2E",
"m  c #5D3D2E",
"M  c #423632",
"N  c #4C3731",
"B  c #443B33",
"V  c #493A36",
"C  c #473C38",
"Z  c #4B3E39",
"A  c #533C36",
"S  c #5D3D30",
"D  c #533E39",
"F  c #603F2F",
"G  c #4C4036",
"H  c #4D413C",
"J  c #55433C",
"K  c #5A453D",
"L  c #564A3E",
"P  c #5A4B3E",
"I  c #61402F",
"U  c #624030",
"Y  c #624032",
"T  c #674332",
"R  c #654231",
"E  c #674334",
"W  c #694433",
"Q  c #6A4535",
"!  c #6F4736",
"~  c #6D4635",
"^  c #684333",
"/  c #704737",
"(  c #714837",
")  c #734939",
"_  c #754A39",
"`  c #764B39",
"'  c #744938",
"]  c #794C3A",
"[  c #7B4D3B",
"{  c #7D4E3C",
"}  c #7E4F3C",
"|  c #7F503D",
" . c #4E4440",
".. c #534540",
"X. c #594641",
"o. c #574843",
"O. c #5B4A45",
"+. c #5E4D49",
"@. c #614E49",
"#. c #645647",
"$. c #64534D",
"%. c #68554F",
"&. c #675849",
"*. c #6B5C4B",
"=. c #715E4D",
"-. c #675651",
";. c #685651",
":. c #6C5A53",
">. c #715C57",
",. c #745F59",
"<. c #6E604F",
"1. c #6D6155",
"2. c #726351",
"3. c #7A6755",
"4. c #7B6A57",
"5. c #74625B",
"6. c #7F6E5A",
"7. c #83523F",
"8. c #82513E",
"9. c #84523F",
"0. c #865340",
"q. c #846B57",
"w. c #846D59",
"e. c #86735E",
"r. c #8A725D",
"t. c #8F7761",
"y. c #917761",
"u. c #907D65",
"i. c #9C836B",
"p. c #A4856C",
"a. c #A9896F",
"s. c #A28B71",
"d. c #AB8B71",
"f. c #AB9176",
"g. c #B29175",
"h. c #B59679",
"j. c #B9977A",
"k. c #B69A7E",
"l. c #BE9B7E",
"z. c #C09C7E",
"x. c #BB9E80",
"c. c #BFA384",
"v. c #BEA794",
"b. c #C5A484",
"n. c #CBA585",
"m. c #C6A989",
"M. c #CDAA8A",
"N. c #D1AB8A",
"B. c #CFB08E",
"V. c #D4B491",
"C. c #DAB693",
"Z. c #DCBA96",
"A. c #D3B79E",
"S. c #DFBD99",
"D. c #E1BD9A",
"F. c #DCBEA4",
"G. c #E5C09C",
"H. c #EFCBA7",
"J. c #F2CCA7",
"K. c #F2CDA9",
"L. c #E7CCB7",
"P. c #F4D2B3",
"I. c #F4D5BA",
/* pixels */
"                                                                                                                                ",
"                                                                                                                                ",
"                                                                                                                                ",
"                                                                                                                                ",
"                                                                                                                                ",
"                                                                                                                                ",
"                                                                                                                                ",
"                                                        O $ * = $ O                                                             ",
"                                                  o $ 5 l Q ) ) / S r = $ o                                                     ",
"                                              O = i E { | 8.0.8.8.8.[ ( S y = O                                                 ",
"                                            = f ~ [ | [ { { 9.0.9.{ [ { 8.[ ( S 2 O                                             ",
"                                          = E _ ~ _ _ ~ ~ _ 8.{ _ W ~ ~ _ [ [ [ _ a *                                           ",
"                                        $ n ~ T U W n v n W _ T T Q ~ T ^ W U U ( { U $                                         ",
"                                      $ f n f j j d g I n n U U n c n j j j c n F U T i O                                       ",
"                                    O 3 x u u u u t d g x j v n j x x x j g g u u u r r ; O                                     ",
"                                    $ u u u t u g g g g g u u a u u r r r r u r e u r : : $                                     ",
"                                  O : r r r r u e : r r r t u r r e e e > : : : r e r : : ; O                                   ",
"                                O % e r r e > > : : > r r r r r e > > : ; ; : : r r e > : ; $                                   ",
"                                O = ; ; : e r r e e e : : > e e : : ; ; : : : : : : : : : ; % O                                 ",
"                                $ # ; ; : e : : : r e > : : : : : : : : : : : e r r : : : ; % O                                 ",
"                              O $ & # : : : : > r r r r e : ; ; ; : : : : : : e : e e : : ; # O                                 ",
"                              O % - - : : : : : : : : : e : : : : : : : : : r e > e : ; : ; & + O                               ",
"                              O % ; ; : : : : : : : : : : : : : : : > : : : : : : : : : : ; & @ O                               ",
"                              + @ # ; : : : : : : ; : : : : : : e r e > > > : : : : : : ; ; # @ O                               ",
"                            O + @ # ; ; ; : : : ; : : : : : : : : : : : : : : : : : : : ; # # @ +                               ",
"                            O + @ # & ; ; ; : w : : ; ; : : : : : : : : : : : : : : ; ; # # # @ + O                             ",
"                            O + @ % # ; ; ; - : : : : ; ; ; ; ; ; ; ; ; ; : : : : ; & # # # # @ O O                             ",
"                            O + @ @ # # ; ; ; ; ; ; ; : : : : : : : : : : : : ; ; ; & # # & % @ + O                             ",
"                            O O @ @ & & # # ; ; ; ; ; ; ; ; ; : : : : ; ; - # ; ; ; # # # # @ @ + O                             ",
"                              O @ % @ ; # # # - ; ; ; ; & # ; ; ; ; ; ; ; ; - & # ; ; # % @ @ % + O                             ",
"                              O @ % @ # # % # # # ; ; # # # # ; & & ; ; ; & # # # & % % # @ @ @ O                               ",
"                            O O + @ @ @ % % % # % % # & ; # # ; # # # % # # # % @ @ % % @ @ @ + O O                             ",
"                            < 9 O + @ @ % % % % # @ # - ; # # # # # # # # # % @ @ % % @ + + + O * $                             ",
"                            O 6 O O + @ @ # % % @ @ @ % # % # # # # # # % % @ @ @ @ @ @ + X O o * O                             ",
"                              o O B 4 O X @ @ @ % @ @ @ @ @ @ @ @ @ @ @ @ @ % @ @ + + X O 6 s o o                               ",
"                                o O.p.&.6 4 = O + @ @ @ @ @ @ @ @ @ @ @ @ @ @ + + X $ 9 *.p.P o                                 ",
"                                  4 a.M.f.f.i.B $ O + @ @ + + + + @ @ @ @ + X O = B e.k.M.a.1                                   ",
"                                    B g.C.C.Z.c.u.<.q $ O X X + + + + X O 1 L 6.s.m.C.C.g.B                                     ",
"                                    o 9 y.M.Z.Z.Z.V.x.e.2.#.B < O O $ B *.s.M.C.Z.Z.M.y.9 o                                     ",
"                                        * L i.M.Z.D.S.V.V.M.k.i.4.*.e.x.M.Z.Z.C.M.i.J *                                         ",
"                                            * G r.l.N.C.Z.Z.C.C.V.B.V.Z.C.N.j.r.G *                                             ",
"                                              O 4 6 P r.d.l.n.N.N.n.z.a.q.P 6 6 $                                               ",
"                                            O Z :.< 6 6 6 s L *.=.L s 6 6 9 < >.o.O                                             ",
"                                            1 >.H 6 X.@.-.+.o.C B H +.$.%.%.4 H 5.0 O                                           ",
"                                          $ Z :.4 p O.@.@.>.,.5.:.,.:.:.:.%.V 6 :.o.1                                           ",
"                                        . 4 O.J , D @.+.o.;.%.$.$.$.-.:.%.+.J < J K 9 o                                         ",
"                                      1 H 4 4 4 1 J o.o.o.+.$.O.$.O.$.@.@.+.J 1 4 4 4 L B                                       ",
"                                      :.L.v.1.* 4 D X.X.o.o.+.+.o.O.+.O.+.X.A 4 * 5.v.D.i.*                                     ",
"                                    . e.P.P.A.6 7 A J X.X.@.+.+.+.$.o.X.J A A 4 9 F.I.H.h.1                                     ",
"                                      L S.J.s.$ , 9 N D D J K J K K A A N p 7 * * k.K.G.w.O                                     ",
"                                      $ *.x.#.= y 3 = 1 2 4 5 5 7 5 4 1 = = 5 r = 3.b.t.4                                       ",
"                                        O 4 * $ 2 5 i i 5 5 2 1 2 3 5 5 5 5 2 = O , 6 *                                         ",
"                                            o , 9 M 6 1 < 1 = 1 1 1 = < 1 8  .H , o                                             ",
"                                            o < V o.o.B 9 Z 9 ..M Z H H -.o.+..., o                                             ",
"                                            o < M 9 M 9 4 Z p H 9 V ..M o.M 7 V 1 o                                             ",
"                                            O = 4 $ < < O 4 1 7 1 4 9 , 9 * $ 7 < O                                             ",
"                                            O O O $ $ $ = O O $ O $ $ O $ $ $ $ O O                                             ",
"                                                O ; 2 2 3 ; $ O O O = ; = ; ; O                                                 ",
"                                                O $ = = = = $     $ = = = = $ O                                                 ",
"                                                                                                                                ",
"                                                                                                                                ",
"                                                                                                                                ",
"                                                                                                                                ",
"                                                                                                                                "
};
