/* XPM */
static char *_8fa84b173a14a9ead3ac3bccf2590c7ZNrZWSSk8NU2qDAz[] = {
/* columns rows colors chars-per-pixel */
"64 64 216 2 ",
"   c None",
".  c #020202",
"X  c #0D0D0D",
"o  c #141414",
"O  c #1C1C1C",
"+  c #231F19",
"@  c #2C251B",
"#  c #352816",
"$  c #242424",
"%  c #2C2B2B",
"&  c #2B2825",
"*  c #352E25",
"=  c #39352B",
"-  c #343433",
";  c #3C3C3C",
":  c #3D3933",
">  c #59360E",
",  c #432D12",
"<  c #462F15",
"1  c #49381A",
"2  c #4E3512",
"3  c #613A0B",
"4  c #4A3C22",
"5  c #413E3A",
"6  c #59441B",
"7  c #6A440E",
"8  c #77450A",
"9  c #6A4E16",
"0  c #644C1B",
"q  c #684E19",
"w  c #664C17",
"e  c #6E5016",
"r  c #6D511B",
"t  c #72551D",
"y  c #76551A",
"u  c #554728",
"i  c #44413D",
"p  c #4B463C",
"a  c #4B453B",
"s  c #594C37",
"d  c #5B503E",
"f  c #6C5322",
"g  c #665124",
"h  c #715621",
"j  c #745924",
"k  c #765C28",
"l  c #7A5C24",
"z  c #625738",
"x  c #7B612A",
"c  c #7F6630",
"v  c #434343",
"b  c #4C4C4C",
"n  c #4C4943",
"m  c #534D42",
"M  c #504F4F",
"N  c #5C5344",
"B  c #595349",
"V  c #545454",
"C  c #5C5A56",
"Z  c #5C5B5B",
"A  c #655C4C",
"S  c #645A47",
"D  c #625C53",
"F  c #655F56",
"G  c #6B614B",
"H  c #6A6547",
"J  c #756C48",
"K  c #7A744C",
"L  c #75704D",
"P  c #666056",
"I  c #6B6354",
"U  c #63605D",
"Y  c #696359",
"T  c #716654",
"R  c #726857",
"E  c #606060",
"W  c #895D1A",
"Q  c #82621D",
"!  c #9B6819",
"~  c #A96B19",
"^  c #AA711D",
"/  c #B6731A",
"(  c #855B2C",
")  c #826B34",
"_  c #846D38",
"`  c #8A743C",
"'  c #92793D",
"]  c #8A6A28",
"[  c #BD7B25",
"{  c #AB762A",
"}  c #C0781D",
"|  c #C97C23",
" . c #867844",
".. c #917D42",
"X. c #817B51",
"o. c #9A8533",
"O. c #B18B2E",
"+. c #DB851D",
"@. c #FF951E",
"#. c #F18F1E",
"$. c #D78626",
"%. c #CA973B",
"&. c #EB8F23",
"*. c #EA9129",
"=. c #F69523",
"-. c #FE9722",
";. c #FD9A25",
":. c #FE9C2B",
">. c #FA9B28",
",. c #FF9E31",
"<. c #EB9C3A",
"1. c #EFA72E",
"2. c #EDA82F",
"3. c #E6A12E",
"4. c #F4A32C",
"5. c #FBA22C",
"6. c #F2A82E",
"7. c #FCAB2C",
"8. c #FEA226",
"9. c #ECAE33",
"0. c #E9AD37",
"q. c #F6A432",
"w. c #FCA233",
"e. c #F4AB33",
"r. c #FBAB34",
"t. c #FDA33B",
"y. c #F4AE38",
"u. c #FCAC3B",
"i. c #F3A33C",
"p. c #EEB236",
"a. c #EDB33D",
"s. c #E7B838",
"d. c #F3B434",
"f. c #FBB435",
"g. c #FABC35",
"h. c #FBB53C",
"j. c #F2BA3D",
"k. c #FABB39",
"l. c #F4BA39",
"z. c #FBB12E",
"x. c #F6C23C",
"c. c #F8C63A",
"v. c #F7CD3D",
"b. c #F9CA3D",
"n. c #F8C337",
"m. c #F7D23E",
"M. c #968247",
"N. c #898355",
"B. c #9D8C52",
"V. c #98915D",
"C. c #B5984A",
"Z. c #A59659",
"A. c #A7995B",
"S. c #AC9D5D",
"D. c #A49258",
"F. c #A8914F",
"G. c #BBA248",
"H. c #9F9862",
"J. c #A69D64",
"K. c #AAA368",
"L. c #B6A767",
"P. c #BDB371",
"I. c #D5B34B",
"U. c #FFA744",
"Y. c #FDA945",
"T. c #FDAB4C",
"R. c #F5AC45",
"E. c #EDBF4B",
"W. c #E9B944",
"Q. c #FBB541",
"!. c #F2BB41",
"~. c #FABA42",
"^. c #F6B94B",
"/. c #FDAE53",
"(. c #F3BA58",
"). c #C6B36A",
"_. c #C4BA75",
"`. c #C5BA74",
"'. c #D6BB65",
"]. c #FAB866",
"[. c #EFBF75",
"{. c #F2C344",
"}. c #F9C345",
"|. c #F4CB4A",
" X c #F8C747",
".X c #F7D244",
"XX c #F6D34D",
"oX c #F6CB53",
"OX c #F4CB5A",
"+X c #F2C45C",
"@X c #F7D552",
"#X c #F6D454",
"$X c #F4D25B",
"%X c #EDCA41",
"&X c #CBC27A",
"*X c #D0C77D",
"=X c #F2CE61",
"-X c #F2CB6A",
";X c #EED46D",
":X c #F3D363",
">X c #F1D36D",
",X c #ECCA78",
"<X c #EED375",
"1X c #EDD47C",
"2X c #F1D773",
"3X c #EFCC6A",
"4X c #D5CB80",
"5X c #D8C995",
"6X c #E8CA87",
"7X c #EAD78A",
"8X c #EBD282",
"9X c #E8D693",
"0X c #E6D79C",
"qX c #E7CF96",
"wX c #E4D7A3",
"eX c #E4D8A5",
/* pixels */
"                                                                                                                                ",
"                                                                                                                                ",
"                                                                                                                                ",
"                                          .X                                                                                    ",
"                                                          /.U.U.Y.                                                              ",
"                                                          ,.@.;.t.t.                                                            ",
"                                                              t.[.(.t.                                                          ",
"                                                              t.6X,X~.w.                                                        ",
"                                                              t.8X;Xx.@.                                                        ",
"                                                              R.3X$Xc.;.                                                        ",
"                                                          T.T.[.<X$Xc.w.,.:.;.                                                  ",
"                                                          U.T.qX1X$Xc.w.:.-.@.;.                                                ",
"                                                          /.].0X;XXXc.5.;.;.;.-.t.                                              ",
"                                                    T.w.,.].,X1XXXm.c.:.-.-.:.-.t.                                              ",
"                                          t.    t.t.,.:.:.w.Y.}.v.m.c.-.-.-.-.;.;.@.                                            ",
"                                          t.,.t.,.:.:.;.:.,.r.c.v.b.g.:.;.-.@.:.-.@.                                            ",
"                                          t.,.:.:.:.;.-.,.w.f.b.b.k.r.,.:.-.-.:.;.@.                                            ",
"                                        :.,.:.-.-.:.:.-.:.k.b.  k.r.,.:.;.-.;.,.:.;.                                            ",
"                                    :.-.;.:.:.4.4.w.:.;.:.g.x.w.w.w.,.:.:.:.:.:.;.:.,.                                          ",
"                                    :.-.>.w.y.j.y.w.,.:.:.g.k.,.,.:.:.;.:.:.>.4.>.;.,.Y.                                        ",
"                                    :.>.e.e.{.|.!.r.,.:.:.f.k.,.:.:.;.;.;.>.6.2.4.>.:.,.w.      ].t.                            ",
"                                    ,.5.!.|.#X$X{.r.:.-.:.:.5.8.z.d.p.p.p.9.9.6.>.;.:.,.,.t.    ].u.                            ",
"                                  t.w.y.|.:X>X=Xj.5.;.-.:.5.r.g.b. X X|.{.j.6.8.:.:.,.:.:.:.w.w.Q.!.                            ",
"                                  w.q.!.OX1X<XOXy.>.-.-.:.7.g..XXXXX@X@X|.j.4.:.:.,.,.:.:.:.>.>.5.!.                            ",
"                          t.w.:.;.6.9.E.1X0X<X}.w.;.-.;.:.f..XXX@X@X@X@X{.d.-.,.,.,.,.,.5.q.6.>.;.e.                            ",
"                            U.:.:.6.9.E.8XwX<X}.w.;.;.:.7.}.XX@X@X@X@X Xe.>.-.:.:.:.,.w.w.q.:.;.@.5.                            ",
"                              ,.:.1.9.E.<X0X8XOXu.:.:.w.f.oX:X#X$XoX}.r.>.-.-.;.:.:.w.w.5.>.;.-.>.e.a.                          ",
"                                :.1.9.!.:X7X7X>Xh.5.:.w.Q.-X1X:X2XOXh.@.@.-.:.-.:.,.q.q.w.:.@.-.5.p.9.a.                        ",
"                                -.1.q.u.}.$X1X8Xh.>.;.w.-X9XwX0X0X<X}.-.;.:.,.;.:.q.w.w.R.R.-.@.>.6.9.                          ",
"                                  e.q.q.u. X$X$X~.:.r.OX9XwXeXwX6X-X}.-.;.;.;.:.w.q.w.w.R.+Xk.8.;.6.9.    ,.                    ",
"                                  q.4.q.w.h.}. X~.:.r.=X0XeXeXwX6X-X X-.;.;.-.:.w.w.w.w.R.^.b.7.8.d.9.R.]./.                    ",
"                                  ,.:.w.q.w.u.~.Q.:.5.^.6X5X5X5X6X,XoX-.;.;.;.;.:.:.q.q.4.5.n.7.7.j.0.q.T.                      ",
"                                    ,.>.q.w.w.w.w.;.:.i.L.M._ _ D.'.oX-.@.;.:.-.;.:.,.w.q.e.c.7.>.6.9.q.T.                      ",
"                                    :.;.q.>.:.:.w.=.&.$.' M.B.D.B.G.W.-.-.:.:.:.:.,.q.q.4.>.7.;.-.>.2.q.T.                      ",
"                                    :.:.5.-.-.=.*.$.} ^ ) A.`.`.S.C.%.&.=.:.:.,.w.w.q.4.>.;.-.>.>.;.6.q.Y.                      ",
"                                  ;.;.:.:.=.#.+.^ W t j A.`.4X4X*XL.M.[ *.:.:.,.w.q.:.-.>.4.4.2.2.4.1.y.                        ",
"                                s $.=.;.=./ ! W y r 0 e ) L.`.K.P._.).C.<.:.;.q.y.f.g.g.g.l.9.9.2.4.1.                          ",
"                        & &   a s ( | +.^ W y t q r r r k ' M. .A.P.`.S.%.*.;.d.x.c..X=X$X|.a.0.2.4.d.!.                        ",
"                      b % - : N G = W ~ w r h h 9 h h h j r q r M.A.S.M.[ $.>.b.m..X$X9X7X:X!.9.1.4.n. X                        ",
"                    - ; b C P A N 4 6 r t h f r r r e w t j t e e 0 e y [ *.5.b..XXX<X0X0X8X^.e.>.>.g.                          ",
"                    & 5 C P I S u 6 0 r r j r q h r q r j j j t 9 w 9 e ] ^ ^ O.I.2X9XwX8X(.5.4.6.e.                            ",
"                    & i D I A s 4 0 f h r h h h k r r t j k j t 9 9 9 r j l y Q o.).5X6X(.r.>.6.d.x.                            ",
"                    & i D I S s u g f h j k ) _ ) l j k j j h e 9 9 q q j k h t e c L.I.3.=.2.0.s.%X                            ",
"                    & i B m m m d 4 1 u ) S.P.P.A._ k j e h h 9 r r r r j j r e h j x Q ! O.0.O.o.o.                            ",
"                    O % i m B A A s s z  .`.*X*X`.A.` j r h h q t t r r r r t t x ` ' ' M.C.s.) u z m                           ",
"                    o $ - n D Y I I A G X._.&X`.&X_.A.) j g 0 6 r t e r 9 r j x ..A.L.L.J.Z.G.z : p - -                         ",
"                  X $ ; v - V U U I A S J K.V.N.K.&X_.D.l 1 # , 7 7 9 j t t j ` L.&X&X_.H.H = m A P F ; ;                       ",
"                n X $ - ; v Z E U U D m i N N N K N.N.J g 2 > 8 2 3 8 6 6 0 j S._.&XJ.K H A A i i U E ; -                       ",
"                  ; O & ; b Z E E U C m : m N S H J H z 4 , < > # , > # 1 2 6 K J.K.K S S A R n v V Z ; -                       ",
"                    X $ ; b Z Z Z Z V b m I R T G G A N & & * * * @ @ + < 1 * : H L s S I I P V b v Z ; -                       ",
"                    o O ; b V Z Z Z ; ; F P P P I R R I a N A T T m * + 5 N T T N m S I Y U U Z b v V - -                       ",
"                      ; O ; b V V b ; v F U U U Y Y Y P p B P R R D m - p A R R B p A P U U E Z b - v - v                       ",
"                      v O $ ; v ; - v b Z Z Z Z V M M M i p m B B C D n m B Y P m i m C U E E V v ; v v v                       ",
"                          X $ & & $ ; b b V V b ; - % - 5 - % % % i V V v b Z V b ; - V E Z Z v ; V V b ; O                     ",
"                          o - v v v - - ; v v v v b b b v M V V C v ; V v - - - b V - M Z V ; b Z Z V b - O                     ",
"                          - - & & ; - - ; ; ; ; ; v ; ; b Z Z Z Z V v ; ; v v v V V v ; v b v Z Z Z b - - -                     ",
"                            ; & & & % - ; - - - ; : - - b V V V V b v & ; b V V V V V % - v Z Z Z b - & ;                       ",
"                                  O X o & & & - v v v ; ; v b v ; - % & v b b b b b b % ; V V V b - o %                         ",
"                                      & X X X o $ & $ O O $ & & - $ X X $ & & & & & & ; v b b v - $                             ",
"                                        - % - % o X & ; - $ o o O & - - o X X X X X o & % % % & % ;                             ",
"                                                X . -     & . . .       . . . . . . . X X X X X O                               ",
"                                                                                                                                ",
"                                                                                                                                ",
"                                                                                                                                "
};
