/* XPM */
static char *c740555f24ca4571e0789c60dd1763a1UaropYYsTBZ9nslO[] = {
/* columns rows colors chars-per-pixel */
"64 64 177 2 ",
"   c None",
".  c #171716",
"X  c #1D1713",
"o  c #1D1916",
"O  c #1C1A18",
"+  c #221712",
"@  c #241A14",
"#  c #2C1D16",
"$  c #221E1B",
"%  c #2B1C1A",
"&  c #301F17",
"*  c #25211E",
"=  c #2B221D",
"-  c #34211A",
";  c #3B251C",
":  c #3E281E",
">  c #262422",
",  c #2C2522",
"<  c #2D2925",
"1  c #2E2C2A",
"2  c #332621",
"3  c #342924",
"4  c #3B2B23",
"5  c #342D2A",
"6  c #3B2E2A",
"7  c #36312B",
"8  c #3C332D",
"9  c #3C3532",
"0  c #3E3831",
"q  c #393837",
"w  c #40291F",
"e  c #4C2727",
"r  c #442D22",
"t  c #482F23",
"y  c #4A2828",
"u  c #442424",
"i  c #552D2D",
"p  c #463127",
"a  c #4B3124",
"s  c #44332B",
"d  c #4A332A",
"f  c #513527",
"g  c #533629",
"h  c #54392C",
"j  c #5B3C2D",
"k  c #423631",
"l  c #443A33",
"z  c #4C3A34",
"x  c #453E3C",
"c  c #4A3E3A",
"v  c #533F39",
"b  c #543D35",
"n  c #603F2F",
"m  c #623B3B",
"M  c #4A4036",
"N  c #4D423A",
"B  c #564437",
"V  c #53443B",
"C  c #59433B",
"Z  c #564A3E",
"A  c #5F4C3D",
"S  c #61402F",
"D  c #654231",
"F  c #6B4535",
"G  c #714836",
"H  c #754A38",
"J  c #7E4F3D",
"K  c #794C3A",
"L  c #7F503D",
"P  c #4E4A44",
"I  c #4D4C49",
"U  c #554642",
"Y  c #5B4740",
"T  c #544B43",
"R  c #5B4B44",
"E  c #544D49",
"W  c #5C4D48",
"Q  c #5C5145",
"!  c #54514D",
"~  c #5A514E",
"^  c #585351",
"/  c #5A5956",
"(  c #5D5C5B",
")  c #694545",
"_  c #604F4A",
"`  c #635446",
"'  c #62534C",
"]  c #66594A",
"[  c #6D5D4C",
"{  c #725F4E",
"}  c #6A5752",
"|  c #6D5F50",
" . c #665A57",
".. c #705D57",
"X. c #715F59",
"o. c #7C5E5E",
"O. c #766553",
"+. c #746452",
"@. c #7C6956",
"#. c #70615D",
"$. c #7E6C59",
"%. c #6C6B6B",
"&. c #776864",
"*. c #796766",
"=. c #757574",
"-. c #82513E",
";. c #85523F",
":. c #816955",
">. c #836E5A",
",. c #85725E",
"<. c #8B745E",
"1. c #847363",
"2. c #8A7660",
"3. c #8E7B64",
"4. c #84736F",
"5. c #917760",
"6. c #927B65",
"7. c #967F68",
"8. c #897070",
"9. c #8F7878",
"0. c #978169",
"q. c #9A836B",
"w. c #928276",
"e. c #A2886F",
"r. c #A38B71",
"t. c #AB9276",
"y. c #AD9478",
"u. c #B19276",
"i. c #B09579",
"p. c #B5997C",
"a. c #BA9D7F",
"s. c #818181",
"d. c #998682",
"f. c #9D8B8B",
"g. c #989898",
"h. c #AC9A8C",
"j. c #AB9D9D",
"k. c #BEA182",
"l. c #A1A1A1",
"z. c gray67",
"x. c #B8AEAE",
"c. c #B3B3B3",
"v. c #BBBBBB",
"b. c #BDB3B3",
"n. c #C2A384",
"m. c #C2A68A",
"M. c #C8A788",
"N. c #C6A989",
"B. c #CBAD8D",
"V. c #CFB18F",
"C. c #D1B18E",
"Z. c #CFB190",
"A. c #D4B492",
"S. c #D8B794",
"D. c #D7B895",
"F. c #DBBA97",
"G. c #D1B69F",
"H. c #DDBD9A",
"J. c #E2BE9A",
"K. c #D2B9A5",
"L. c #C3BBBB",
"P. c #E4C29D",
"I. c #E9C49F",
"U. c #E9C49E",
"Y. c #E7C6A0",
"T. c #EDC7A1",
"R. c #EBC6A1",
"E. c #EEC9A3",
"W. c #F0CAA4",
"Q. c #F1CBA5",
"!. c #F2CFAC",
"~. c #F0D1B6",
"^. c #F4D5BB",
"/. c #C4C3C3",
"(. c #C9C4C4",
"). c #CCCBCB",
"_. c #D3D2D2",
/* pixels */
"                                                                                                                                ",
"                                                                                                                                ",
"                                                                                                                                ",
"                                                                                                                                ",
"                                                                                                                                ",
"                                                                                                                                ",
"                                                                                                                                ",
"                                                          o o O o                                                               ",
"                                                    o $ 4 d h j h 4 = $ o                                                       ",
"                                                O = d F J ;.-.-.-.L F j r = O                                                   ",
"                                            O 2 h F K H G K J ;.-.K G H H D h 4 $ O                                             ",
"                                          O r D F D D D F K -.J H D D D D D G F h = o                                           ",
"                                        O p F D D D g j n F H F D D D D D D D n D j 4 O                                         ",
"                                      O - j j j j j j D n n D D D j j j j j j S D D g =                                         ",
"                                      $ : a a a a r r g j j n D g g g f a a a f g g a r $                                       ",
"                                    O - r a a r r r r t a a a g g a a r r t a r : r r - # o                                     ",
"                                  O = w t r r r w ; r a r r a t r r r w w ; : w r : w - & @ O                                   ",
"                                  $ : r r w : : - - w r r r r r r : w w ; - - - ; ; ; - - # o                                   ",
"                                O @ - ; : ; - - - - ; : : w r r : : ; - - - - - - - - - - # @ O                                 ",
"                                o # - - - - - & # # # - - ; : : ; ; - - - - - - - - - - & & @ O                                 ",
"                                o # - # # # # # # # # & - - - - - - - - - - - # - # # # # - @ o                                 ",
"                              O @ - - # # @ @ X o @ @ # # - - - - # & & # # # # @ @ @ # # # @ o O                               ",
"                              o @ # # # @ @ = Q [ 8 o @ @ # # # # # # # @ @ @ , * X + @ @ # # @ O                               ",
"                              o @ # & @ @ $ O.n.B.y.Z o + @ @ @ @ @ @ + X o l 0.2.l o @ @ @ # @ O                               ",
"                              o @ # @ + o V k.I.W.I.n.` $ + @ + @ @ X $ l [ p.J.C.t.O.8 o @ @ + o                               ",
"                            O o @ @ @ , ] y.J.W.T.T.T.M.O.7 $ o o o 3 O.a.C.I.W.T.H.N.r.M @ @ + o                               ",
"                            O o + + * 1.m.J.Q.T.T.T.W.T.A.t.<.O.+.$.e.A.R.T.U.W.W.Q.Q.F.q., + + o O                             ",
"                            O @ @ X N m.H.a.e.n.S.W.T.T.T.J.S.C.B.C.J.T.T.T.T.F.M.r.p.S.N.Z X + @ O                             ",
"                            O o + o $.F.{ 3 4 4 s p.T.W.T.T.W.W.I.T.W.T.W.T.M.B 4 4 4 C B.,.o + o O                             ",
"                              o + $ r.N.>.q.6.>.[ A :.S.W.W.T.T.T.W.T.W.J.<.A ` @.3.q.<.p.y., + o O                             ",
"                              o + , a.R.,.E ^ 6 8 V { <.u.J.T.T.T.T.F.a.5.+.Z 8 4 E ! | P.N.8 X o                               ",
"                            O o X 7 N.P.T z.f.i % 2 6 >.B.P.T.T.R.T.I.A.6.8 2 % y 8./.P C.S.N X o O                             ",
"                            * 3 X l S.H.T v.9.e % e &./ 7.T.T.T.I.U.W.i.E *.i % u o.(.! N.F.` X $ O                             ",
"                            * l O [ S.I.Q l.x.) i m x.l.R P.T.T.T.T.W.+.s.(.) i m j.v.P A.J.@.O , $                             ",
"                              O O V n.E.3.( ).L.j.L.)./ 0.W.T.T.R.I.Q.p.I v.(.j.b._.=.+.R.k.M o O                               ",
"                                O o ` B.H.] ( l.c.g./ +.P.W.T.T.T.I.Q.I.2.I g.c.z.%.T Z.B.V $ O                                 ",
"                                  O * l r.H.3.Q T Q q.P.Q.R.R.P.P.P.T.E.R.t.] T T $.S.A.Z , =                                   ",
"                                  O = 4 < >.N.H.P.R.!.R.F.A.V.B.B.B.A.F.R.Q.T.P.Y.R.k.N $ $ O                                   ",
"                                    O = r 4 3 R t.F.F.Z.B.B.B.B.B.B.B.B.A.D.H.A.0.Z 3 - = o                                     ",
"                                      O - 4 4 2 , M +.q.a.k.r.0.0.r.k.k.y.6.[ 8 = s - $ $ O                                     ",
"                                      O @ @ $ - r s 3 , l [ $.O.O.O.] M 5 3 3 r 4 4 @ o O                                       ",
"                                        O O O o $ r 4 4 3 = , , 3 3 2 4 s h 4 % @ o O                                           ",
"                                            O , , @ O o % - - 3 4 r 4 - = @ $ $ $ O                                             ",
"                                            > } U O O * O @ @ * = @ @ o o O O c ' 5 o                                           ",
"                                          O l ..9 , < &.~ O $ +.@.> o 5 > 5 5 9 X.U *                                           ",
"                                        o 2 R W , s ,  .d.E O , 8 * 5 4.x 8 v < R R 6 O                                         ",
"                                        * , k s , V 8 , 9 E T < < 1 &.#.5 5 C = s s , , $                                       ",
"                                      7 h.w.M $ 3 C W R N 5 < < 9  .E < 5 N C , $ l 1.a.`                                       ",
"                                      ` ~.^.G.8 3 C Y _ ' l O 7 x 5 < l Y C C 3 0 K.^.T.q.$                                     ",
"                                      V P.!.m., 2 z v C R k $ , 6 z C C b z s > 5 A.!.U.>.O                                     ",
"                                      * 2.J.,.= 3 = , 3 8 6 $ * 3 s s 6 3 , , 4 = e.J.u.8                                       ",
"                                        * Z l $ 4 p p 4 3 * > 1 7 > = 3 4 r 4 2 O M ` 5                                         ",
"                                            o * 5 5 3 , 2 $ > q I 1 * , * $ O $ $ .                                             ",
"                                              > l R R k 6 k , 5 , 8 k c 9 * 2 $ O                                               ",
"                                            o > k k z k 6 N k V k N U z R < $ * $ O                                             ",
"                                            O = 5 * < < O 5 3 8 < 3 8 , k > $ 5 > O                                             ",
"                                            O $ $ O $ $ 3 $ O * $ $ * $ * $ $ $ O O                                             ",
"                                                O = 4 r d 2 $ O O O = 4 = 4 2 O O                                               ",
"                                                O $ = = = = $ O   $ = = = = $ O                                                 ",
"                                                                                                                                ",
"                                                                                                                                ",
"                                                                                                                                ",
"                                                                                                                                ",
"                                                                                                                                "
};
