/* XPM */
static char *_57dc19eeb504e64b156e863689d6513bw06YTa1Ku8KdMax[] = {
/* columns rows colors chars-per-pixel */
"64 64 227 2 ",
"   c #677F00",
".  c #668401",
"X  c #698601",
"o  c #678C00",
"O  c #6B8C02",
"+  c #6B8B0C",
"@  c #6D850A",
"#  c #718E03",
"$  c #708F0B",
"%  c #679301",
"&  c #6D9402",
"*  c #6E9902",
"=  c #6E920C",
"-  c #739404",
";  c #799705",
":  c #749C03",
">  c #7A9C04",
",  c #71940B",
"<  c #759B0A",
"1  c #7C9C0B",
"2  c #799708",
"3  c #6C8613",
"4  c #718B15",
"5  c #738C1C",
"6  c #788F1E",
"7  c #749313",
"8  c #7C9C14",
"9  c #75931C",
"0  c #779919",
"q  c #7C9B1C",
"w  c #789816",
"e  c #76A103",
"r  c #7BA304",
"t  c #77AA00",
"y  c #7DAB03",
"u  c #7DA30B",
"i  c #7EA90A",
"p  c #75A009",
"a  c #7EB000",
"s  c #7EA215",
"d  c #7EA11C",
"f  c #748D21",
"g  c #758B2B",
"h  c #76872B",
"j  c #769221",
"k  c #7D9623",
"l  c #7B9A25",
"z  c #7C932C",
"x  c #7E9A2B",
"c  c #788835",
"v  c #7E9233",
"b  c #7F9638",
"n  c #819F05",
"m  c #819D1E",
"M  c #82A405",
"N  c #83AB04",
"B  c #8AAE05",
"V  c #82A30B",
"C  c #84AB0A",
"Z  c #8BAD0A",
"A  c #8AA70D",
"S  c #91AF0A",
"D  c #85B203",
"F  c #8CB303",
"G  c #8EB902",
"H  c #86B10C",
"J  c #8CB209",
"K  c #8FB80B",
"L  c #92B504",
"P  c #94BA03",
"I  c #99BD04",
"U  c #92B609",
"Y  c #93B50A",
"T  c #95B90B",
"R  c #9ABC0C",
"E  c #83A415",
"W  c #89A716",
"Q  c #85AA14",
"!  c #8BAB14",
"~  c #84A31C",
"^  c #8AA51D",
"/  c #8CAB1C",
"(  c #86AA1E",
")  c #91AF14",
"_  c #90AF18",
"`  c #8DB114",
"'  c #8DB319",
"]  c #94B314",
"[  c #9AB613",
"{  c #9BBB14",
"}  c #94B31A",
"|  c #9AB51C",
" . c #9CBB1B",
".. c #95BA17",
"X. c #A0BD1B",
"o. c #839C23",
"O. c #859D2C",
"+. c #82952C",
"@. c #829532",
"#. c #859C33",
"$. c #899E31",
"%. c #82933D",
"&. c #859C3B",
"*. c #899E3C",
"=. c #84A322",
"-. c #8BA323",
";. c #8DA924",
":. c #8BA42C",
">. c #8DAA2B",
",. c #86A329",
"<. c #92AE24",
"1. c #92AB2B",
"2. c #8EB226",
"3. c #94B324",
"4. c #9BB623",
"5. c #9EBA22",
"6. c #94B32C",
"7. c #9EB92C",
"8. c #9AB42A",
"9. c #8BA334",
"0. c #8EAA33",
"q. c #8BA23B",
"w. c #88A338",
"e. c #93AB33",
"r. c #91A43C",
"t. c #94AB3C",
"y. c #96AA35",
"u. c #96B434",
"i. c #9CB534",
"p. c #9DB831",
"a. c #9CB33C",
"s. c #96B03B",
"d. c #A2BC2C",
"f. c #A1BE24",
"g. c #A4BC34",
"h. c #A1B53A",
"j. c #A5BC3C",
"k. c #A9BD3F",
"l. c #A3B736",
"z. c #9CC105",
"x. c #9FC10D",
"c. c #A0C105",
"v. c #A9C516",
"b. c #A8C227",
"n. c #A9C237",
"m. c #B0C634",
"M. c #869444",
"N. c #8B9C44",
"B. c #889549",
"V. c #8C9C4B",
"C. c #879845",
"Z. c #909E4B",
"A. c #8E9A55",
"S. c #909C54",
"D. c #8DA242",
"F. c #8FA149",
"G. c #92A543",
"H. c #94AA43",
"J. c #99AB44",
"K. c #92A34B",
"L. c #96AA4B",
"P. c #9AAB4C",
"I. c #98A74D",
"U. c #9DB244",
"Y. c #9AB347",
"T. c #95A352",
"R. c #99A654",
"E. c #9BAB54",
"W. c #96A45A",
"Q. c #99A55C",
"!. c #9DAC5B",
"~. c #A2B743",
"^. c #A5BA44",
"/. c #ABBE43",
"(. c #A3B34D",
"). c #A4B94B",
"_. c #A9BB4B",
"`. c #A8B74B",
"'. c #A1AF56",
"]. c #A1AE5D",
"[. c #A5B555",
"{. c #A5BA53",
"}. c #ABBC55",
"|. c #A4B359",
" X c #A8B55C",
".X c #ACBB5D",
"XX c #A7BA5A",
"oX c #B2BE5E",
"OX c #B0BE57",
"+X c #9CA563",
"@X c #9EAB62",
"#X c #A2AD65",
"$X c #A2AD6A",
"%X c #A4B165",
"&X c #AAB664",
"*X c #ADBB64",
"=X c #ABB56C",
"-X c #AEB96C",
";X c #A7B268",
":X c #B1BC64",
">X c #B2BC6C",
",X c #ACB573",
"<X c #AFB972",
"1X c #A7B270",
"2X c #B0B775",
"3X c #B4BC74",
"4X c #B1B679",
"5X c #B5BD7B",
"6X c #B9BE7C",
"7X c #A2A770",
"8X c #ABC147",
"9X c #AFC053",
"0X c #B3C353",
"qX c #B6C25A",
"wX c #B4C064",
"eX c #B5C16A",
"rX c #BAC568",
"tX c #B6C174",
"yX c #B9C174",
"uX c #B7C17B",
"iX c #BAC17C",
"pX c #BEC87A",
"aX c #B9BE82",
"sX c #B7BB81",
"dX c #BCC283",
"fX c #BBC388",
"gX c #C0C587",
/* pixels */
"S - x $X=X,XN.#.=X#X=X<.N e & L J - & * y : : L N # X M B e - U L - * * y : : F N # X M B e - U L - & * y : : L N - X M B e * J ",
"V F 6.5X3XiX!.q.dX3XiXH.: F B M M U y & e y : B M : r > : F B M M U y * e y > B M : r > e F B M M U N & e y : B M : M > e F B r ",
"O * 9.6X5XdX[.9.6X3X6XD.e N B : O : : e e L P P P F D F M N Z : O : : e e L P I P F D F r N B : O : : > e P P P P F D F M N B : ",
"r e F 4.}.2Xr.| =X=X%X:.O X & C r e F L J L P P L F y r & X & N r e F L J L P I L F r r - . & M r e F L J P P P L F r r - . & N ",
"z.L } L L ;.#.^ g g @.` y Z > N z.L F F L J r M ; & e r : B > N z.L B F L Z r r ; & e r : B > N z.L F L L C r M ; & e r : B > N ",
"G R >X_.[ 6.5X2X2Xx !.tX}..X} G G I > > L N & X O > N y B - F G P I > > F N & 5 5 q U F B - F G G I : > L N & X O : N y N - B P ",
"8.:X3X5XE.D.6X>X3X&.!.5X2X4XO.e N > : & & : B F L I L r & . - e N > : & & e F 4.&XyXOX` & . - r N : : & - e B L L I L r & . - e ",
"t.>XXX3XR.q.6X5XiXD.].iX5X5Xz & e : y r : * N N F P B : F > X & e : y r - : C 7.*X5X6X9.B > X & e : N r - : N N F P B > Z > X & ",
"T T I d.5.4.`.W.#Xz N.#X#X+X5 N I P P F L L C & r P F > r > O B I P P F L U V 1XdX5X6X#.r > O Z I I L L L U C % r P F > M ; O B ",
"G F F F L L L , < u < u e + : D G F L L L L L e y L N y e O - D G F F F L F F $.E._.K.u e O - N F F P L F F L e y L N y e O : D ",
"r > B J ; - > e e r * : e e : e N e B J ; # > > e r & : e e : e r > B B m J.^.r.q ( G.9.w.=.r.s.3.t.U >.*.J.1.: : r * : e e > > ",
"O > F r N ; O & : > r # L U J N B F F r N ; O & : : M # F L r . O > F : H.fX5XdXT.!.dX6X4X#.=XiX3X-Xe.(.u.>X$X= : e M # F L r . ",
"L L : & y D N M B P > . - B I P P F e & t D N y F P > . - N M M L L > % L.6X-X3XK.K.5X>X3X&.&X5X-X=X&.&XC C e.C F I > . ; N M M ",
"F L r e : e F / a.d.9.4 @.y...D D H D.9.9.: u d ;.} : & O e P F G L N : L.6X3XdXK.K.dX5XiX&.;XiXiX,X&.2X*XXX!.> r B : & O e P F ",
"y e : F ; - L R }.5X3XC.5X6X*X>.i u.5X/.y.+.<X<X5XK.y y t r F D y e : B k B.T.V.v v V.r.V.9 v V.S.b 7 <.r.M.%.& * : D y t r F D ",
"& & * : r - 1 f.g.3X,XO.i.3X5X%X*.6X3X*Xa.O.5X>XwX].O e N * : r & & & : > # 7 K.L.T.e.P P.%XK.f g &.r.e.M # > N r & & e N : : e ",
"B - & : D : = &X5X3X5X/ 7.>X>Xb.| 3X6XiXU.r &X5XrX>X@ r B e - F B - & : D : 9 gXdXiX&XL.iX5XiXK.K.dXiX-XJ : : P N & X M B > : F ",
"M U y & : y < ;.J.E.H.o.G. .] E V 8.J.A.x y ].$XR.t.r r e F B r M U y & : y s ,X3X5X$XS.5X3X5XZ.K.tX<X3X0.r e B N > r > : F B r ",
"O : : e e P P P L F A =.~ A / j k Z B < 8 ~ / Z B N D F r M Z : O : : e r r 1 *X5X<XE.F.2X>XyXJ.V.5X*XwXJ.F P I P F D F M M Z > ",
"r e F L J L P P L 4.:X,X3XM.$X5X5XU.L n.rX:XT P I I N r & X O N r e F L J > e _ @.=.H C ~ ] -.m o.r.[ [ } P P P L F r r & . & N ",
"z.L B L L B r r - =XaX3X.X] *X3X3X>XZ ^.>XqXa.> n - : r : B > N z.L B L L N : > O & t D N F r N z.F B L L B r M - O e r : B > N ",
"P I : > L N & X + [.qXeX5X9.*XiXiX<X#.>XeXiX!.. X > B y N - F G G I : > L N & X O > N y N - B G G I : > L N & X O > N N N - B P ",
"N : > & & > F L L I X.'.+Xc B.@XQ.M.q H.T.S.3.M ^ x.I B & . - e N : : & & : F L L I L r - . - r N : > & & : F F L I L r & . - > ",
"e : N r - : N N F P B , Z 8 . O q @.! 2.x & / j.eX}.U F L > X & e : N r - : N N F P B : L > X & e : N r - : N N F P B : L > X & ",
"I P P F L L M & r P F e r ; O N >.dX3X5Xg.F }.dX3X2X .P N ; O B I I L F L U C & y P F > r : O B I P P F L L N & r P F > r ; O B ",
"G F F F L L L e r L y y e O - B J .X5X3X4.F  .:X.X9XU.y e O : D F D L F L F F : y F r t e o : D G F F F L L L e r L r t e o : D ",
"e > B J > - > : : r * : e e : : Q :X_.0XL.# ; |.P.w 4 : e e : : 2.s.Z ] :.G.a.J.q ;.q.:.( s : > r > B J ; - > > e u D.t.>.0.: > ",
"O > F r C > O & : e M # F I u . 4 :.Z s ! > O j j > M # F I e 5 5X}.l.U./ }.5XaXq.t.rX>X[ T r . O > F r N > O & * 8 oX>X[ { V . ",
"I L : & t D N N L P > . - N N N L F > & t D N N F P >   ; B M _ f. .>X$Xe J 8Xj.[ L /.5X}.! N N L L : & t H C N F P /.5X}.4.M N ",
"F G y e - : F M r B > - O e P F F L y e - > F N e B : - O e P F F L 9X'.q.}.5.^.0.4.oX[.=X>.P F G L y e & : F r e / .XXX3X_.G F ",
"y e : B - - L P r : N y r r F D y e : B ; - L P r : D y y r F D t d M.W q @.L T =.k C t Q E F N t e : N m L. .P r < C y Q =.U D ",
"& & & - M - > L B & & e B * : e O & * : M - > I B & & e B * : e & O % - r & > I N x !.a.3.z 9.).!.;Xl 9.^.eX.XL F & & e N & : e ",
"B - & : D : : L N O X M B e & F B - & : D : : L M O X M B e & F B > r : D : : L r G.gXl.g.L.L.m.d.iX#.H.J U.*XL M O X M B e : B ",
"M K y & e y > B M > r > : F B M M T N & e N > B M : V 1 > F B M M T L F r y > B M =.j.qX:X{ 4.g.g. .V & Y._.&X<.V > r > : F B M ",
"O : : e e L P I P F D F M N B : - F F N e L I I P F D F M N N : o : r P F F I I P D a ..~.W 8.>X1X!.=.: H. .L T P F D F M N B : ",
"r e F L J L P P L F r r & . & N r r F I Y U P L L Z ( =.s e q ;.E E r W | I P P Y 3.=.u f c z ~ +.@.Z L ] Y P L Y ! r r - X & N ",
"z.L F L L Z r r - & e r : B > N z.F r V {.}._.7.> T.5X4X.XF s.^.v...( 2X3X0Xe./ wXsX>X>.e.5.~.H z.{ 7.U U 3.0Xl.}.@X: r : B > N ",
"P I : > L N & X O : N y N - F G G I : l aX2XdX-XZ }.5X3X3XG.d.P P I #.5XwX6XR.T.yXoXqX3.' }.5.F G { >X_. ./ 5X5X3X[.V y N - B P ",
"N > : & - e B L L I U r & . & r N > : q 5X5Xj.4.L  .*XyX5XB.>X9X8X Xd {.5X5Xd.{ { I b.t.L.aX>X9X/  X).{.&Xq.d.X.[ R L r & . - e ",
"e : y r - : N N F P B : B > X & e : N r Z.#X^ N F I ~.+XI.A r.+XQ.M.e > I.T.E V W L 3.&.| h.Q.$XO.H.C E T.z -.^ ! I B > B > X & ",
"I I P F L F C & r P F : r > O B I I P F B B E H.a.P J 9 N._.H.~ m K.N.N.-.#.Q.W.G.G H N.a.t.3 V I L L A Z F u + 1 P F > M ; O N ",
"L F L L L L L e y L N y e O : D G F F F L L T 5X>Xj.[.#.iX5XiX} K eX6X6XG.t.dX5XeX/ [.gXaX5Xo.D G [ [ { X.L I e y L N y e O : F ",
"r > B J ; - > > e r * : e e : e r > B J 2 # E >X>X5X=X&.6X3X2Xs.C *X>X3X8.a.5X*X3XV.@X>X}.<X9 e u U.d./.eXr.> e : r & : e > : e ",
"O > F r N > O & : e r # F L r . O > F r C ; 6 5X*X}.^.O.3X2XiX#X%.5X5XiXr.K.5X5X*X#.|.eX[ 4.8 O 4 J.g.j.7.o.o * : e r O F L r . ",
"L F : & y D N N F P > . ; B M M L F : & t D C ;...F C A | r.B.%.z N.%.N.Q J 3.6.Y F m %.k N D N L _ W.W.i N C N F P > . ; N M M ",
"F L N > : : F r r B : & O e P F F L y e : > F r e B : : F : D.s u C j E.[.' Q w y.d./ e r y G F G P e - , w F M r B : & O e P F ",
"y e : B - - L P r : D y t r F D y e : B ; - L L r : N y t * =X{.H u.W.l.}.5X%X&.4X5X*XY.p y L D y r : F ; - L P r : D y y r F D ",
"& & * : M - > I F & & e N * : r & & * : M - > I F & & e N & !.uX*X3XV.*X}.5X X;.3X3X5X.Xr * : e & & & : M - > I F & & e B * : r ",
"B - & : D : : L N O . r B N e B B - * : D : : L N & X M B > !.n.7.,XN.=X*X4X XL k.5X5Xl.N e * F F - * : D : : L N & O M B e : F ",
"M U N & : M e r O.G.y.:.Q Y e.p.i.Y y * e y e B M > u > : N ! M 7 h 5 g g O.=.F -.0.u.O.> F B M M U y & : r e r m E D r : F B r ",
"O : : e r r r r @XdX5XtX#.&X5X5X,X0 : e e P P P P F D F M M D : K.=X;X=X,.F F I P D D F M M B : O : : e r r e ;.5X*X3...N M Z > ",
"r e F L J > e B %X5X=X5Xv W.5X.X:X=.B L J L P P L F r r & . O r U.pX3X6Xt.P I P L J r r & . O N r e F U U > :  .3X3XeXI.O . & N ",
"c.L F L L C : > ].dX3X[.~ y.}.H x.Y B L L Z e r - O : r : B > N z. ..X6X#.r r r - & e r : B > N z.L B L L N - y.3X5XeX>.: B > N ",
"P P : > F B : X %.E.`.( D W <.F G P : > F N - X O > N y N - F G F [ #X7X&.* & X O > N N N - B G G I : > F B & c @X X}.( N - B G ",
"N < : & 7 C I ) j A F 8 0 5 $ u Q 8 : & , E L L L I U r & . - r M , 9 4 = : F F L I L e & . - r N : : & & > F F B P S q & . - > ",
"E #X2.6.!.N.}.>X4X*.8.>Xd._.z R.5X=X3.i K.4X`._.} P B : F > X & e : N r : : N N F P N : F > X & e : N r - : N N F P B : J > . & ",
"e.uX>XiX@XR.iX3XdXK.K.iX_.}.z R.dX3X2X$.=X5X2X4X:.P F > r - O B I P L L L L N % r P F > r ; O B I I P F L L N & r P F : r - O N ",
"K *X5X5X(.J.5X6XeX1.L.dX5XsXx E.5X5X4Xz  X5X5X5X;.F N y e O : D G F F F L L I e r L N N r & : D G F F F L L T e r L y y e O * D ",
"e K._._.[ L i.;Xe.N w.R.(.!.0 N.,X!.U./ [ ~.#X+Xq e & : e e : e r > B J ; # > > > r & & & & * 1 u > N Z ; O ; : e r * : e e : > ",
"O 1 B e C Z B Z B L ;.#.B F :.$X5XJ.N r F L 1 + 7 e M O F L r . O > B r N > O & : : <.!.R.|.@.S.,XU.3.o.G.N.K.&.< e r O F L r . ",
"L L > & t N C : <.k.yXdX=.! pXdX5X*Xw & t D B N F P > . - N N N L L : & t D C N L L ^.gXuXiXW.=XiX3X3Xb =XdXiXa.J P > . ; N N N ",
"F L y > - : F : W.yX:X5Xl % @Xu.3.p.C.: : > F r e B : & O e P F F P r > - > F y r N G.5X<X5XV.;X5X3X=X9.:X2X&X5.F B : & & r P F ",
"y e : B ; - L F a.iX3X4Xl % O.Y.y < 7 B ; - L P r : N y t r F D t e : B : - L L r & G.4X,X,XV.!.2X2X2X/ (.5X5Xi.P N N y t r F D ",
"& & * : n # > P ! M.M.N.W * , v + & * : M - > I F & & e N & : r & & & : M - : L F & 3 z -.g 9 5 h h g 9 >.*.V.9.Y B & e N & > r "
};
