/* XPM */
static char *b23e4c8371de46b3f06a8b34f82e894cozpPzYAXqGsSw1Xn[] = {
/* columns rows colors chars-per-pixel */
"64 64 174 2 ",
"   c None",
".  c #131312",
"X  c #1D1714",
"o  c #1C1916",
"O  c #1C1B18",
"+  c #211712",
"@  c #241A14",
"#  c #2C1E16",
"$  c #221E1B",
"%  c #2B1F19",
"&  c #301F17",
"*  c #391E1E",
"=  c #26211D",
"-  c #2B221D",
";  c #302017",
":  c #34221A",
">  c #3B251C",
",  c #3E281E",
"<  c #272625",
"1  c #2B2522",
"2  c #2E2924",
"3  c #312622",
"4  c #3A2621",
"5  c #332A25",
"6  c #3B2B23",
"7  c #342D2A",
"8  c #3A2E29",
"9  c #37312A",
"0  c #3C332C",
"q  c #3F382F",
"w  c #3D3532",
"e  c #40271E",
"r  c #41291F",
"t  c #442C21",
"y  c #482F23",
"u  c #443027",
"i  c #4C3225",
"p  c #43342D",
"a  c #4C3429",
"s  c #513427",
"d  c #533628",
"f  c #56392A",
"g  c #5B3C2D",
"h  c #423431",
"j  c #443B33",
"k  c #4A3D34",
"l  c #4C3F3A",
"z  c #563030",
"x  c #533C35",
"c  c #5F3E31",
"v  c #573F38",
"b  c #613E2F",
"n  c #603F30",
"m  c #4C4136",
"M  c #47423E",
"N  c #4E443B",
"B  c #52443B",
"V  c #59433C",
"C  c #54493D",
"Z  c #5C4C3F",
"A  c #544335",
"S  c #624031",
"D  c #654131",
"F  c #664232",
"G  c #654232",
"H  c #674334",
"J  c #6B4534",
"K  c #6E4636",
"L  c #694333",
"P  c #704737",
"I  c #704837",
"U  c #724938",
"Y  c #754A38",
"T  c #764A39",
"R  c #7A4D3B",
"E  c #7F4F3D",
"W  c #524541",
"Q  c #5C4741",
"!  c #514943",
"~  c #5C4B44",
"^  c #524F4D",
"/  c #5D4E4A",
"(  c #5A5043",
")  c #5D5348",
"_  c #5B5956",
"`  c #634F49",
"'  c #635446",
"]  c #64544C",
"[  c #69554F",
"{  c #6C5D4C",
"}  c #715C4B",
"|  c #675650",
" . c #6A5752",
".. c #6C5A54",
"X. c #715D57",
"o. c #755F59",
"O. c #785959",
"+. c #71604F",
"@. c #78624F",
"#. c #62605D",
"$. c #746351",
"%. c #7B6552",
"&. c #7B6A57",
"*. c #73625D",
"=. c #79635D",
"-. c #7C6C59",
";. c #696866",
":. c #7D6761",
">. c #776965",
",. c #7E6E61",
"<. c #776464",
"1. c #757574",
"2. c #7B7A7A",
"3. c #81503E",
"4. c #826B57",
"5. c #886F59",
"6. c #846E5A",
"7. c #85725D",
"8. c #8B725D",
"9. c #836A63",
"0. c #8B7661",
"q. c #917C65",
"w. c #987B63",
"e. c #8B7676",
"r. c #968169",
"t. c #9B836B",
"y. c #958478",
"u. c #A2866D",
"i. c #A4896F",
"p. c #A48B71",
"a. c #AC8D72",
"s. c #AB9176",
"d. c #AD9379",
"f. c #B4977A",
"g. c #B59A7D",
"h. c #BB9D7E",
"j. c #888584",
"k. c #9A8484",
"l. c gray59",
"z. c #9A9A9A",
"x. c #AC9787",
"c. c #BA9E80",
"v. c #B69982",
"b. c #BDA182",
"n. c #B9AFAF",
"m. c #C4A384",
"M. c #C7AA89",
"N. c #CCAD8C",
"B. c #C6A387",
"V. c #D2AD8B",
"C. c #D1B18F",
"Z. c #CDAD90",
"A. c #D5B491",
"S. c #D9B693",
"D. c #DCBA96",
"F. c #DEBC9A",
"G. c #E1BE9A",
"H. c #E5C29D",
"J. c #E9C49F",
"K. c #E7C5A1",
"L. c #EBC6A1",
"P. c #EEC9A3",
"I. c #EECAA3",
"U. c #E9C9AC",
"Y. c #F3CEA7",
"T. c #F0CBA4",
"R. c #F0CDAD",
"E. c #EBD1BD",
"W. c #F1D0B3",
"Q. c #CCCBCB",
"!. c #D0CFCF",
"~. c #D8D5D5",
"^. c #DCDBDB",
"/. c #E0DFDF",
/* pixels */
"                                                                                                                                ",
"                                                                                                                                ",
"                                                                                                                                ",
"                                                                                                                                ",
"                                                                                                                                ",
"                                                                                                                                ",
"                                                                                                                                ",
"                                                                                                                                ",
"                                                        O = - - - - - O                                                         ",
"                                                  o $ 3 g J K J Y Y P c t = o                                                   ",
"                                              O - u S I I K R R 3.Y J I E U a =                                                 ",
"                                          o - g Y Y Y P D D g g g D I J K U R H - o                                             ",
"                                        O - g R I D D L D g d g i s D D f g S Y K a - O                                         ",
"                                        - g D S g g f d d d f g d d s g g f f g b Y K 3 O                                       ",
"                                      $ u f g i i i d g f t t i i i i d f g i i f f K n -                                       ",
"                                    O : d s y y t y i g f t > y t i i s g f i t i d D b , O                                     ",
"                                  O : d i y g i t r r t i i t y i d t t i i t > t i f s : $                                     ",
"                                  $ a g b s y > > > r > > t y r , > , t t r t t t t i i : % O                                   ",
"                                  - g i > > > > > > > > > > > > > > > > > : > r , > t t > & % O                                 ",
"                                  - i > > > > > > > > > > > > : > > > > > > > > > > t t r ; # O                                 ",
"                                O % e : : : : : ; : > : : > , > > , > > > t t t > r y t > : ; % O                               ",
"                                O % ; : ; # # ; # ; > > > : > t t t > > > > > r r t , > > ; # @ O                               ",
"                                O % # # # # # # # # ; : > : : > > > > > > > > > > > > r > ; # % O                               ",
"                                o % # # # @ + o + @ # # ; : > > > > > : > > > : : > > , : ; # % o                               ",
"                                o @ % % o o q { q o % # # : > > > : : : : : , > > > > : ; # # % o                               ",
"                                o @ @ o j -.g.D.g.j o # # # # # # # ; ; : : : > > > > ; # # # % +                               ",
"                                o o $ C h.H.J.P.L.$.X @ # # # # ; ; # # # ; : : : : : & # # # @ +                               ",
"                                . O &.N.P.Y.P.T.Y.7.X @ & # # # & # # % % # & # & : : & # # # @ + O                             ",
"                                  5 M.I.G.a.%.4.A.s.$ @ % # % % + o + @ % % % # # ; : # # # # % @ O                             ",
"                                  j C.H.4.6 A k @.m.5 + @ @ @ o $ $ $ 1 o @ # % # # # # # # % % @ O                             ",
"                                  k N.4.} q.t.t.u.C.N X + + o 7 y.x.j ' 9 X @ # # # # # # # % % + O                             ",
"                                  0 8.$.B ^ ;._ N b.q.$ + + O ,.v.B.-.{ 7.$ + @ % # # # # % @ @ o                               ",
"                                  j -.5 4 e.^.Q.1.r.A.k X o 2 s.Z.K.7.{ N.C o + @ % @ @ % @ @ @ o                               ",
"                                  = M h * O.~.!.2.t.L.&.X o 2 g.h.N.m t.P.g.B o X @ @ @ @ @ @ @ o                               ",
"                                  X ^ <.z k./.Q.#.f.T.d.1 o O { 5.C ' G.T.H.c.$.5 o @ % % @ @ + o                               ",
"                                  7 N j.n.~.^.z.) G.T.B.2 o 2 N N 7.D.T.P.T.L.A.p.B O + @ @ @ + O                               ",
"                                  m i.! 1.l.2.! g.T.P.q.3 t = t.J.T.T.I.I.I.P.L.F.f.C o + @ @ o O                               ",
"                                  p f.s.+.( $.h.H.D.N.N 6 u $ ' I.Y.I.I.P.J.H.L.H.S.p.0 X @ @ o                                 ",
"                                  2 w.h.b.b.N.N.N.N.0.3 t : o $.P.L.J.H.H.J.J.H.D.S.m.%.$ + o o                                 ",
"                                  O Z 8.a.h.b.m.p.' 7 u 6 - o ' G.H.H.J.J.H.D.A.V.V.m.} O o o                                   ",
"                                  O $ p ' +.{ C 5 3 6 6 4 % X C S.F.F.F.D.S.V.V.B.a.' = . .                                     ",
"                                  O - : - - - 6 6 6 6 : % + 5 u.S.S.S.S.V.h.u.&.B 2 o                                           ",
"                                    O - 4 6 6 u 4 : - - % o m a.a.t.8.{ C 0 = o                                                 ",
"                                    O O $ % - : : % % % + O 1 2 1 1 w l ~ / 1                                                   ",
"                                      O O O O $ $ % o $ 0 ] j w W 7 9.9.=.o.h O                                                 ",
"                                              O o w ! < =.9.8 ] o.2 ..:.*. .B $                                                 ",
"                                                = >.*.2 X. .2 X.[ 5 W =...] Q 1                                                 ",
"                                                < / w <  .W 5  .` 8 j ..| / V 5 o                                               ",
"                                              O O = 5 B ] w 8 ` ~ p 7 ] / V V 8 O                                               ",
"                                              o = p v Q ~ 2 3 j p 6 1 V v x x 5 O                                               ",
"                                            O < < = 5 p p 1 m ! ! k 1 0 8 3 1 3 =                                               ",
"                                            O < < 6 u 6 $ ~ S.U.E.F.{ $ 3 6 t 6 $                                               ",
"                                              O O $ - 3 = $.J.R.W.L.0.$ 1 1 7 7 =                                               ",
"                                              O $ 1 $ 7 2 j m.J.L.V.Z 7 W W ] / 1 o                                             ",
"                                              O = $ 5 j 8 2 j 4.6.C 2 k  .m j l 1 o                                             ",
"                                              $ 1 = 5 8 $ 8 1 = $ 1 h 5 j 5 1 p 1 O                                             ",
"                                              $ = O O $ O $ $ 1 = $ 1 O 1 $ O - $ O                                             ",
"                                              O O $ 3 $ $ $ $ O $ $ $ - $ - $ O O                                               ",
"                                                  O = $ O $ $ O $ $ $ - $ $ O                                                   ",
"                                                                                                                                ",
"                                                                                                                                ",
"                                                                                                                                ",
"                                                                                                                                ",
"                                                                                                                                "
};
