/* XPM */
static char *_9e82e7f13a947a2f345c56d8d3172ffNMbjLNypAjqDUgXx[] = {
/* columns rows colors chars-per-pixel */
"64 64 254 2 ",
"   c None",
".  c #271D16",
"X  c #281E16",
"o  c #211F19",
"O  c #221E19",
"+  c #231D1B",
"@  c #231F1B",
"#  c #251F18",
"$  c #261D1B",
"%  c #241E1B",
"&  c #201C1D",
"*  c #211D1E",
"=  c #221E1F",
"-  c #251D1E",
";  c #2E1E1B",
":  c #1B2016",
">  c #20211C",
",  c #2F271F",
"<  c #2A2D1D",
"1  c #2B2C1F",
"2  c #35281C",
"3  c #26311B",
"4  c #1D1F22",
"5  c #211F20",
"6  c #211F21",
"7  c #231F20",
"8  c #221C22",
"9  c #211F22",
"0  c #201E23",
"q  c #211E23",
"w  c #211F23",
"e  c #211D24",
"r  c #271C24",
"t  c #1F2022",
"y  c #1D2027",
"u  c #202020",
"i  c #212021",
"p  c #282425",
"a  c #2A2B20",
"s  c #2B2B20",
"d  c #2B2C24",
"f  c #2B2728",
"g  c #322E2F",
"h  c #343334",
"j  c #383435",
"k  c #4F3B10",
"l  c #682F00",
"z  c #623301",
"x  c #663200",
"c  c #663300",
"v  c #643002",
"b  c #673203",
"n  c #653500",
"m  c #663104",
"M  c #6B3300",
"N  c #613805",
"B  c #633807",
"V  c #683F17",
"C  c #723F12",
"Z  c #4C3620",
"A  c #634312",
"S  c #604316",
"D  c #634217",
"F  c #654115",
"G  c #644214",
"H  c #654016",
"J  c #654017",
"K  c #644117",
"L  c #6F4617",
"P  c #624218",
"I  c #61421A",
"U  c #63421B",
"Y  c #654218",
"T  c #644318",
"R  c #69481D",
"E  c #714C19",
"W  c #564838",
"Q  c #6D4528",
"!  c #704D23",
"~  c #795129",
"^  c #444444",
"/  c #72624A",
"(  c #83511A",
")  c #865119",
"_  c #82531C",
"`  c #82521D",
"'  c #82531D",
"]  c #80531F",
"[  c #81531F",
"{  c #82531F",
"}  c #83541C",
"|  c #90601C",
" . c #9E6B1F",
".. c #835521",
"X. c #865522",
"o. c #815426",
"O. c #87612B",
"+. c #87602E",
"@. c #906224",
"#. c #966E24",
"$. c #956C27",
"%. c #976C27",
"&. c #966E26",
"*. c #9B6B20",
"=. c #996C21",
"-. c #9A6C21",
";. c #9E6E21",
":. c #9F6F22",
">. c #946A28",
",. c #946B28",
"<. c #936E28",
"1. c #996C29",
"2. c #986F28",
"3. c #986F2B",
"4. c #977026",
"5. c #977126",
"6. c #997222",
"7. c #987025",
"8. c #9A7025",
"9. c #9A7026",
"0. c #96702F",
"q. c #997129",
"w. c #9A7028",
"e. c #9B7129",
"r. c #9A712B",
"t. c #9B712B",
"y. c #9E702A",
"u. c #9D732B",
"i. c #9F752D",
"p. c #A57D4D",
"a. c #5D812F",
"s. c #5D8431",
"d. c #628A33",
"f. c #628836",
"g. c #669735",
"h. c #699734",
"j. c #669832",
"k. c #669934",
"l. c #BD8C35",
"z. c #CB962F",
"x. c #CD992B",
"c. c #CC992F",
"v. c #CD9A2F",
"b. c #D19A2C",
"n. c #C79736",
"m. c #CB9731",
"M. c #CB9732",
"N. c #CD9736",
"B. c #CD9737",
"V. c #C59B35",
"C. c #CD9A31",
"Z. c #CD9B31",
"A. c #CD9933",
"S. c #CE9A32",
"D. c #CE9B33",
"F. c #CC9C31",
"G. c #CB9A34",
"H. c #C99936",
"J. c #CC9834",
"K. c #CD9934",
"L. c #CD9935",
"P. c #CC9A34",
"I. c #CE9837",
"U. c #CF9B37",
"Y. c #C5963E",
"T. c #C9913A",
"R. c #CC923F",
"E. c #CB9B3C",
"W. c #D39631",
"Q. c #D09C39",
"!. c #D19D3A",
"~. c #D09C3B",
"^. c #D09E3E",
"/. c #B89744",
"(. c #BF985F",
"). c #B19467",
"_. c #B59465",
"`. c #B79565",
"'. c #B79567",
"]. c #B99563",
"[. c #BA9463",
"{. c #BA9165",
"}. c #B89265",
"|. c #BA9367",
" X c #BA9465",
".X c #B99467",
"XX c #BA9467",
"oX c #B79568",
"OX c #B7956A",
"+X c #B5976A",
"@X c #BA9469",
"#X c #BA9B6F",
"$X c #BC996E",
"%X c #BD9A6F",
"&X c #D09D41",
"*X c #D29F43",
"=X c #D3AF5E",
"-X c #E6AF5D",
";X c #E4B253",
":X c #E3B055",
">X c #E5B256",
",X c #E5B257",
"<X c #E7B158",
"1X c #E5B15A",
"2X c #E7B15A",
"3X c #E7B459",
"4X c #E4B15E",
"5X c #E5B55D",
"6X c #E6B55D",
"7X c #C09B6E",
"8X c #D0AF63",
"9X c #D5AD61",
"0X c #C1A377",
"qX c #C6A576",
"wX c #CBA674",
"eX c #88C246",
"rX c #8AC247",
"tX c #8AC149",
"yX c #8AC14A",
"uX c #8CC051",
"iX c #8E8D8D",
"pX c gray56",
"aX c #D9B889",
"sX c #E7C699",
"dX c #E7C79B",
"fX c #E7C79C",
"gX c #E8C798",
"hX c #E8C799",
"jX c #E3CA9A",
"kX c #E4C899",
"lX c #E4CA99",
"zX c #E7C89A",
"xX c #E6C99A",
"cX c #E3C89E",
"vX c #E5C89C",
"bX c #E5C99C",
"nX c #E5C89D",
"mX c #E7C89C",
"MX c #E6C99C",
"NX c #E6C99D",
"BX c #E4CA9D",
"VX c #E5C99E",
"CX c #E7C89F",
"ZX c #E6C99F",
"AX c #E7CA9E",
"SX c #E2CC9D",
"DX c #E9C89A",
"FX c #E9C89B",
"GX c #E8C99B",
"HX c #E8C99D",
"JX c #E9CA9C",
"KX c #E8CB9F",
"LX c #E7C8A1",
"PX c #D3DCD6",
/* pixels */
"                                                                                                                                ",
"                                                                                                                                ",
"                                                                                                                                ",
"                                                                                                                                ",
"                                                                                                                                ",
"                                                                                                                                ",
"                                                                                                                                ",
"                                                                                                                                ",
"                                                                                                                                ",
"                                                                                                                                ",
"                                                                                                                                ",
"                                                                                                                                ",
"                                                                                                                                ",
"                                                                                                                                ",
"                                                                                                                                ",
"                                                                                                                                ",
"                                                iX                                                                              ",
"                                                p                                                                               ",
"                                                1 : 7                                                                           ",
"                                                1 yXyX7                                                                         ",
"                                                a g.k.yX7                                                                       ",
"                                                a j.k.k.rXt                                                                     ",
"                                                a s.k.k.k.rX7               7 7 PX                                              ",
"                                                d a.h.k.k.uXi           X $ ,X,Xk .                                             ",
"                                                  3 f.d.d./.h   iXj =X8X6X3X^.*X*X^.9X8Xj                                       ",
"                                                    e o o ,.x.7 / -X4X,Xm.m.A.A.K.A.m.m.V.7                                     ",
"                                                          o *.;X6X:Xc.A.A.A.A.A.K.A.A.A.A.<.7                                   ",
"                                                      7 7 ,X,X<X!.A.A.A.A.A.A.A.K.A.A.#.#.W.7                                   ",
"                                                  * 7 ,X,X,X,XA.!.A.A.A.A.A.A.A.K.,.#.A.A.W.7                                   ",
"                                            - - 2 <X<X<X<XA.K.K.!.n b A.A.A.K.K.w.A.A.K.K.$                                     ",
"                                          o ..( X.b b b b K.G.z.C N.A.A.A.F.#.#.U.N.c.w.w.0.7                                   ",
"                                        ; o.+X+XNXNXhXhXNXN N M !.A.Y.n.=.=.A.b.E.u.w.w.w.w.:.*                                 ",
"                                      * { sXNX).NXcXsXsX`.NX@Xl l.1.G.G.K.K.#. .u.w.w.w.w.w.:.*                                 ",
"                                      7 { NX].DXKXNXNXNXNXXXLXNX@.A.A.A.1.1.w.w.i.w.w.w.w.7.A *                                 ",
"                                    7 { NXNX].NXKXNXNXNXNX`.NXNX| A.5.7.w.w.w.w.u.w.w.w.w.D >                                   ",
"                                    7 { XXNX].NXKX+XXXNXNX`.NXNX{ w.w.w.w.w.w.w.u.w.K K K I 7                                   ",
"                                    7 { XXNX].NXNXDXNX`.NXNXNXlXp.w.T.b w.w.w.w.E T K K K I 7                                   ",
"                                    7 { XXNXXXNXNXKXNX`.NXNXXXfX(.R.m w.w.w.7.5.R T I I 7 7                                     ",
"                                    i ) lXNX|.NXNXlXKX|.NXNXXXNX%Xz 7.w.w.6.D K Q K i i                                         ",
"                                      7 { wXNXaXKX0XqXNXNXNXXXNX%Xw.+.O.K K K Z W ^                                             ",
"                                        4 4 NXSX7XNXNXNXNXXXlXNX#XV I T T 7 o                                                   ",
"                                            7 NXNXXX].].].NXNXjXL K K 7 7                                                       ",
"                                              y KXNXNXNXNXNX|.b ! r $                                                           ",
"                                                , DXNX`.XXNX{ } g                                                               ",
"                                                f ~ { { { { 7 *                                                                 ",
"                                                  i 7 7 7 7                                                                     ",
"                                                                                                                                ",
"                                                                                                                                ",
"                                                                                                                                ",
"                                                                                                                                ",
"                                                                                                                                ",
"                                                                                                                                ",
"                                                                                                                                ",
"                                                                                                                                ",
"                                                                                                                                ",
"                                                                                                                                ",
"                                                                                                                                ",
"                                                                                                                                ",
"                                                                                                                                ",
"                                                                                                                                ",
"                                                                                                                                ",
"                                                                                                                                ",
"                                                                                                                                ",
"                                                                                                                                "
};
