/* XPM */
static char *_976936279e34fd9ee961d4f733bc283RLkpMjvNAtfVUjaS[] = {
/* columns rows colors chars-per-pixel */
"64 64 174 2 ",
"   c None",
".  c #141312",
"X  c #1D1714",
"o  c #1D1916",
"O  c #1C1B18",
"+  c #211712",
"@  c #241A14",
"#  c #2C1E16",
"$  c #221E1B",
"%  c #2B1F19",
"&  c #301F17",
"*  c #391E1E",
"=  c #26211D",
"-  c #2B221D",
";  c #302017",
":  c #34221A",
">  c #3B251C",
",  c #3E281E",
"<  c #272625",
"1  c #2B2522",
"2  c #2E2924",
"3  c #312622",
"4  c #3A2621",
"5  c #332A25",
"6  c #3B2B23",
"7  c #342D2A",
"8  c #3A2E29",
"9  c #37312A",
"0  c #3C332C",
"q  c #3F382F",
"w  c #3D3532",
"e  c #40271E",
"r  c #41291F",
"t  c #442C21",
"y  c #482F23",
"u  c #443027",
"i  c #4C3225",
"p  c #43342D",
"a  c #4C3429",
"s  c #513427",
"d  c #533628",
"f  c #56392A",
"g  c #5B3C2D",
"h  c #423431",
"j  c #443B33",
"k  c #4A3D34",
"l  c #4C3F3A",
"z  c #563030",
"x  c #533C35",
"c  c #5F3E31",
"v  c #573F38",
"b  c #613E2F",
"n  c #603F30",
"m  c #4C4136",
"M  c #47423E",
"N  c #4E443B",
"B  c #52443B",
"V  c #59433C",
"C  c #54493D",
"Z  c #5C4C3F",
"A  c #544335",
"S  c #624031",
"D  c #654131",
"F  c #664232",
"G  c #654232",
"H  c #674334",
"J  c #6B4534",
"K  c #6E4636",
"L  c #694333",
"P  c #704737",
"I  c #704837",
"U  c #724938",
"Y  c #754A38",
"T  c #764A39",
"R  c #7A4D3B",
"E  c #7F4F3D",
"W  c #524541",
"Q  c #5C4741",
"!  c #514943",
"~  c #5C4B44",
"^  c #524F4D",
"/  c #5D4E4A",
"(  c #5A5043",
")  c #5D5348",
"_  c #5B5956",
"`  c #634F49",
"'  c #635446",
"]  c #64544C",
"[  c #69554F",
"{  c #6C5D4C",
"}  c #715C4B",
"|  c #675650",
" . c #6A5752",
".. c #6C5A54",
"X. c #715D57",
"o. c #755F59",
"O. c #785959",
"+. c #71604F",
"@. c #78624F",
"#. c #62605D",
"$. c #746351",
"%. c #7B6552",
"&. c #7B6A57",
"*. c #73625D",
"=. c #79635D",
"-. c #7C6C59",
";. c #696866",
":. c #7D6761",
">. c #776965",
",. c #7E6E61",
"<. c #776464",
"1. c #757574",
"2. c #7B7A7A",
"3. c #81503E",
"4. c #826B57",
"5. c #886F59",
"6. c #846E5A",
"7. c #85725D",
"8. c #8B725D",
"9. c #836A63",
"0. c #8B7661",
"q. c #917C65",
"w. c #987B63",
"e. c #8B7676",
"r. c #968169",
"t. c #9B836B",
"y. c #958478",
"u. c #A2866D",
"i. c #A4896F",
"p. c #A48B71",
"a. c #AC8D72",
"s. c #AB9176",
"d. c #AD9379",
"f. c #B4977A",
"g. c #B59A7D",
"h. c #BB9D7E",
"j. c #888584",
"k. c #9A8484",
"l. c gray59",
"z. c #9A9A9A",
"x. c #AC9787",
"c. c #BA9E80",
"v. c #B69982",
"b. c #BDA182",
"n. c #B9AFAF",
"m. c #C4A384",
"M. c #C7AA89",
"N. c #CCAD8C",
"B. c #C6A387",
"V. c #D2AD8B",
"C. c #D1B18F",
"Z. c #CDAD90",
"A. c #D5B491",
"S. c #D9B693",
"D. c #DCBA96",
"F. c #DEBC9A",
"G. c #E1BE9A",
"H. c #E5C29D",
"J. c #E9C49F",
"K. c #E7C5A1",
"L. c #EBC6A1",
"P. c #EEC9A3",
"I. c #EECAA3",
"U. c #E9C9AC",
"Y. c #F3CEA7",
"T. c #F0CBA4",
"R. c #F0CDAD",
"E. c #EBD1BD",
"W. c #F1D0B3",
"Q. c #CCCBCB",
"!. c #D0CFCF",
"~. c #D8D5D5",
"^. c #DCDBDB",
"/. c #E0DFDF",
/* pixels */
"                                                                                                                                ",
"                                                                                                                                ",
"                                                                                                                                ",
"                                                                                                                                ",
"                                                                                                                                ",
"                                                                                                                                ",
"                                                                                                                                ",
"                                                                                                                                ",
"                                                        O = = = = = = O                                                         ",
"                                                  o = t c P Y Y J J J g 5 $ o                                                   ",
"                                                = a U E I J Y 3.R R J I I S u - O                                               ",
"                                            o - H R U J J I D g g g D D P Y Y Y g - O                                           ",
"                                        O - a P T S g d D D s i g d g D L D D I R g - O                                         ",
"                                      O 5 J Y b g d d g g s d d g d d d d d g g S D g =                                         ",
"                                      - S J d d i i g d d i i i i t t d g d i i i g d u $                                       ",
"                                    O , b D d i t i d g s i i t y , t d g i y t y y s d : O                                     ",
"                                    $ : s d i t > t i i t t d i y t i i t r r t i g y i d : O                                   ",
"                                  O % : i i t t t t r t t , , , r y t , , r , , , y s g g a $                                   ",
"                                O @ & , t t > , r > : > > > > > > > > > , > > , > , > , i g -                                   ",
"                                O # ; r t t , > > , > > , > , > : > > , : > , > > , , > > i -                                   ",
"                              O @ ; : > t y r , t t t > > > , > , , > : : > : ; & : : : > e % O                                 ",
"                              O @ # ; > > , t r r > , > , , t t t , : > , > ; & ; # # ; : ; # O                                 ",
"                              O @ # ; > r > , > > > > > > > > > > : : > : ; # # # # # # # # # O                                 ",
"                              o # # ; : , , > : : > > > : > , > > > : ; # # @ @ o @ @ # # # # o                                 ",
"                              o # # # ; : > > > > , : : : : > > , , : # # # @ h { q o o # # @ o                                 ",
"                              @ # # # # ; > > , , : : : ; ; # & # # # # # o j g.D.g.&.j o @ @ o                                 ",
"                              @ @ # # # & : : : : ; ; # # # ; ; # # # # @ X $.P.P.J.H.h.C $ o o                                 ",
"                            O @ @ & # # & ; : & # # # # # # # & # # # # @ X 7.T.T.P.T.P.N.&.O .                                 ",
"                            O @ # & # # # : ; # # # # # @ @ o @ # # # # @ $ s.A.4.%.a.G.I.M.5                                   ",
"                            O @ # # # # # # # # # # @ o 1 $ $ $ o @ @ @ + 5 m.@.k A 6 4.H.C.j                                   ",
"                            O @ # # # # # # # # # @ X 9 ' j x.y.7 o + + X N C.u.t.r.q.} 4.N.k                                   ",
"                              o @ @ # # # # # # @ + $ 7.{ -.B.v.,.O + + $ q.b.N _ ;.^ B $.8.0                                   ",
"                              o @ @ @ # @ @ # @ + o C N.{ 7.K.Z.s.2 o X k A.r.1.Q.^.e.4 5 -.j                                   ",
"                              o @ @ @ @ @ @ @ + o B g.P.t.N N.h.g.2 o X &.P.r.2.!.^.O.* h M =                                   ",
"                              o + @ @ # # @ o 7 $.c.H.T.G.' C 5.{ O o 1 d.T.f.#.Q./.k.z <.^ X                                   ",
"                              O + + @ + + $ B p.A.L.T.P.T.D.7.N N 2 o 2 B.T.G.) z.^.~.n.j.N 7                                   ",
"                              O o @ @ + o C f.F.L.P.I.I.I.T.T.J.t.= t 3 q.P.T.g.! 2.l.1.! i.m                                   ",
"                                o @ @ X 0 p.S.H.L.H.J.P.I.I.T.I.' $ u 6 N N.D.H.h.$.( +.s.f.p                                   ",
"                                o o @ $ %.m.S.D.H.J.J.H.H.J.L.P.$.o : t 3 0.N.N.N.N.b.b.h.w.2                                   ",
"                                  o o O } m.V.V.A.D.H.J.J.H.H.G.' o - 6 u 7 ' p.m.b.h.a.8.Z O                                   ",
"                                    . . = ' a.B.V.V.S.D.F.F.F.S.C X % > 6 6 5 5 C { +.' p $ O                                   ",
"                                          O 2 B %.u.h.V.S.S.S.S.u.5 @ % > 6 6 6 6 = - = : = O                                   ",
"                                                o = 0 C { 8.t.a.a.m o # - - : 4 u 6 6 4 - O                                     ",
"                                                  1 / ~ l w 1 1 2 1 O @ @ # % : > - % $ O O                                     ",
"                                                O h o.=.9.9.7 W w j ] 0 $ o @ $ $ O O O O                                       ",
"                                                $ B  .*.:...2 o.] 7 9.=.< ! w o O                                               ",
"                                                1 Q ] ..=.W 5 [ X.2  .X.2 *.>.=                                                 ",
"                                              o 5 V / | ..j 8 `  .5 W  .< w / <                                                 ",
"                                              O 8 V V ~ ] 7 p ~ ` 8 w ] B 5 = O O                                               ",
"                                              O 5 x x v V 1 6 p h 3 2 ~ Q v p = o                                               ",
"                                              = 3 1 5 8 0 1 k ! ! m 1 p p 5 = < < O                                             ",
"                                              $ 6 u 6 5 $ { F.E.U.A.~ $ 6 u 6 < < O                                             ",
"                                              = 7 7 1 1 $ 0.L.W.R.J.$.= 5 - $ O O                                               ",
"                                            o 1 ~ ] W W 7 Z V.L.J.m.j 2 7 $ 1 $ O                                               ",
"                                            O 1 l j N | k 2 C 6.4.j 2 8 h 5 $ = O                                               ",
"                                            O 1 p 1 5 j 5 h 1 $ = 1 8 $ 8 5 = 1 $                                               ",
"                                            O $ = O $ 1 O 1 $ = 1 $ $ O $ O O = $                                               ",
"                                              O O $ = $ - $ $ $ O $ $ $ $ 3 $ O O                                               ",
"                                                  O $ $ = $ $ $ O $ $ O $ = O                                                   ",
"                                                                                                                                ",
"                                                                                                                                ",
"                                                                                                                                ",
"                                                                                                                                ",
"                                                                                                                                "
};
