/* XPM */
static char *e4ec3e8fed234ba7a293b44f87483d69uaSc7nq0fykxy6wK[] = {
/* columns rows colors chars-per-pixel */
"64 64 139 2 ",
"   c None",
".  c #2F2824",
"X  c #322A26",
"o  c #372E29",
"O  c #382F2A",
"+  c #3D332D",
"@  c #3F3730",
"#  c #40352F",
"$  c #413630",
"%  c #453933",
"&  c #4B3E36",
"*  c #4B4037",
"=  c #4E4139",
"-  c #54453D",
";  c #56493F",
":  c #564940",
">  c #5B4C42",
",  c #5F5146",
"<  c #615246",
"1  c #655549",
"2  c #67584B",
"3  c #6C5C4E",
"4  c #6D5E50",
"5  c #705F50",
"6  c #6F6052",
"7  c #756353",
"8  c #786656",
"9  c #7A6857",
"0  c #7D6B5A",
"q  c #7F705D",
"w  c #806F5C",
"e  c #81705E",
"r  c #867561",
"t  c #887763",
"y  c #8B7A65",
"u  c #8E7D68",
"i  c #917F6A",
"p  c #94836D",
"a  c #98876F",
"s  c #978670",
"d  c #988770",
"f  c #9A8971",
"g  c #9A8871",
"h  c #9B8A71",
"j  c #998872",
"k  c #9A8972",
"l  c #9A8973",
"z  c #9A8A72",
"x  c #9B8A72",
"c  c #9B8A73",
"v  c #998871",
"b  c #9C8A72",
"n  c #9C8B72",
"m  c #9C8A73",
"M  c #9C8B73",
"N  c #9D8B73",
"B  c #9E8D71",
"V  c #9C8C73",
"C  c #9D8C73",
"Z  c #988B75",
"A  c #9C8A74",
"S  c #9C8B74",
"D  c #9D8B75",
"F  c #9D8C74",
"G  c #9D8D74",
"H  c #9E8D74",
"J  c #9E8D75",
"K  c #9F8E74",
"L  c #9E8E75",
"P  c #9F8E75",
"I  c #9F8E76",
"U  c #9F8F76",
"Y  c #9F8E77",
"T  c #9B8B73",
"R  c #9F927A",
"E  c #A08F76",
"W  c #A08F77",
"Q  c #A08F76",
"!  c #A08F78",
"~  c #A09077",
"^  c #A19077",
"/  c #A49375",
"(  c #A49376",
")  c #A29074",
"_  c #A19078",
"`  c #A19178",
"'  c #A09079",
"]  c #A19179",
"[  c #A29078",
"{  c #A29179",
"}  c #A3927A",
"|  c #A3937A",
" . c #A4937B",
".. c #A1947B",
"X. c #A4967E",
"o. c #A5977F",
"O. c #A3957B",
"+. c #A5987F",
"@. c #A6987F",
"#. c #A6997F",
"$. c #A7997F",
"%. c #A7997F",
"&. c #A9987F",
"*. c #A8987F",
"=. c #A79A80",
"-. c #A69980",
";. c #A89A81",
":. c #A99B81",
">. c #AA9A80",
",. c #AA9A81",
"<. c #AB9A81",
"1. c #AA9B81",
"2. c #AB9B81",
"3. c #A99C82",
"4. c #AC9C82",
"5. c #AC9C83",
"6. c #AC9E83",
"7. c #AC9E84",
"8. c #AC9F84",
"9. c #AD9F84",
"0. c #AF9F85",
"q. c #AB9C82",
"w. c #AEA084",
"e. c #AEA085",
"r. c #AFA085",
"t. c #AEA085",
"y. c #B0A287",
"u. c #B0A387",
"i. c #B0A287",
"p. c #B1A488",
"a. c #B2A488",
"s. c #B3A68A",
"d. c #B4A68A",
"f. c #B5A78B",
"g. c #B3A589",
"h. c #B6A88C",
"j. c #B6A98D",
"k. c #B5A88B",
"l. c #B8AB8E",
/* pixels */
"                                                                                                                                ",
"                                                                                                                                ",
"                                                                                                                                ",
"                                                                                                                                ",
"                                                                                                                                ",
"                                                                                                                                ",
"                                                                                                                                ",
"                                                                                                                                ",
"                                                                                                                                ",
"                                                                                                                                ",
"                                                                                                                                ",
"                                                                                                                                ",
"                                                                                                                                ",
"                                                                                                                                ",
"                                                              7 7 7 7 7 7 7                                                     ",
"                                                          7 9 s S ! ` G a p 8 7                                                 ",
"                                                        0 S S 0 0 p a V / c p p 0                                               ",
"                                                      1 #.` c p i 0 0 p M M G ` Z %                                             ",
"                                                      1 2.2.E M c p p c E 2.2.0 , +                                             ",
"                                                      > w 9.d.2.^ G ^ 2.y.2.0 > ; -                                             ",
"                                                    7 7 7 w c y.d.d.d.q.0 1 > ; ; > 5 7                                         ",
"                                                7 9 S S 0 7 9 e s G p 2 > ; ; ; > 0 p p 8 7                                     ",
"                                              0 c a G V p 0 7 7 0 y 1 ; ; ; > < w p c c p p 9                                   ",
"                                            0 c G G w.G c p 0 9 7 7 > ; > < 0 p p c c c c M y $                                 ",
"                                          < c G c c G c G G p p 0 7 < < 0 p p c c c c M G p : + X                               ",
"                                          < ` ^ M M G ` a.a.G c V p p p p c c c M M G 2.| > $ + X                               ",
"                                          1 =.d.4.4.d.a.` G G c c c c c M M M c ` `  .X.2 % $ $ + X                             ",
"                                        > 5 e c y.h.9.` c G w.G M M c a E ` E y y 0 7 1 - $ # # + X                             ",
"                                        > 7 w 9 e c w.2.G M c p E ` G e e y y c ! 7 > - % % * & + .                             ",
"                                        > 7 8 7 7 9 r 2.` c e 0 e y y p p p c 2.X.1 ; - = 7 u p r %                             ",
"                                      7 7 8 8 7 7 7 7 9 1 4 p a p p p c c G 2.#.3 ; - & 7 p c c c r *                           ",
"                                    0 c p p r 9 8 7 7 3 < y 4.2.E M M M E 2.X.3 ; - - = p &.^ M M G p @                         ",
"                                  0 M G c c a p r 9 7 > 5 9 r 9.d.4.2.4.y.#.3 ; ; ; - = 0 4.y.4.2.4.R %                         ",
"                                0 S G / M c c c a p 8 ; 3 7 7 w c y.h.9.0 1 ; ; ; ; - 2 7 0 r 9.a.2.2 = X                       ",
"                              7 #.4.G M c c c c c c p y ; 5 7 7 9 e p 9 > ; ; > < 7 7 9 9 7 7 0 0 9 > - X                       ",
"                              < p a.2.G c c ^ c c M G p - 2 7 7 7 7 7 > ; ; > 7 u p p p p 0 8 7 7 3 > - X                       ",
"                              > 9 c a.2.G c c c G &.G 9 ; = 3 7 7 7 7 > ; > 9 p c c c c c p p 0 7 > ; - o                       ",
"                            > 3 7 0 G a.2.G c G 2.q.0 > ; % ; < < < 3 > ; 1 X.` G G G G G G G c y > ; ; = X                     ",
"                            > 7 7 9 p G a.2.` 2.q.0 > ; - % ; y p e 1 > > 7 c a.l.k.d.d.k.l.a.#.9 > ; ; = X                     ",
"                            > 5 3 0 u e c y.l.9.0 > ; - - ; y c c a p w 1 7 0 c a.X.G ` X.q.0 1 > ; ; ; % X                     ",
"                            > 7 8 u 0 7 9 r q.0 > ; ; - ; y c c V c c a p r 8 0 c w.| w.X.3 > ; - ; ; ; $ X                     ",
"                            > 7 9 p 9 7 7 9 p < ; ; - > y c c G w.G c c c p r 7 0 c q.0 1 ; ; - + - ; ; $ + X                   ",
"                            ; 7 0 u 9 7 w 9 r > = - - p G M c c c a ) c c c i ; 3 0 p < ; ; ; - o - ; - $ + X                   ",
"                            + 3 u 0 7 7 8 7 < ; - = - 2.4.&.d p w e a c M G p - 3 9 y 1 ; ; - - + = - % $ + X                   ",
"                              % e 9 7 7 9 y > - - % - p y.q.y r p a c E 2.X.1 & 2 7 0 t > ; ; ; = + = % $ + X                   ",
"                                % 2 3 7 9 r > % $ % 2 9 9 6 X.y.4.2.4.d.=.3 ; - = 5 8 y > ; ; ; - o & $ + X                     ",
"                                  o + 2 2 = % $ # % 5 7 3 < 0 c d.h.9.p 2 ; ; - & 3 7 7 > ; ; ; = o + X X                       ",
"                                      O + + + + + + 3 7 < 3 7 0 p s 2 > ; ; - - & 2 7 7 3 ; ; = $ X X                           ",
"                                          X X X X o 3 5 < 7 7 7 0 u > ; ; ; - % # + 1 3 2 - = o X                               ",
"                                                  O 2 < 3 7 7 7 9 y 1 ; ; - % $ + X o O o X X                                   ",
"                                                  O < > 7 3 7 7 7 0 t > - % $ + X                                               ",
"                                                    + - 2 7 7 7 7 9 u > % + + X                                                 ",
"                                                      X + 1 3 3 3 7 q & + X X                                                   ",
"                                                          O O O O + + X X                                                       ",
"                                                                                                                                ",
"                                                                                                                                ",
"                                                                                                                                ",
"                                                                                                                                ",
"                                                                                                                                ",
"                                                                                                                                ",
"                                                                                                                                ",
"                                                                                                                                ",
"                                                                                                                                ",
"                                                                                                                                "
};
