/* XPM */
static char *e88b2698957748aad8b8c087207554408aGd84UzHbpUVtGa[] = {
/* columns rows colors chars-per-pixel */
"64 64 255 2 ",
"   c #363317",
".  c #362C29",
"X  c #3B3324",
"o  c #3C3C24",
"O  c #3D342C",
"+  c #383929",
"@  c #3D3334",
"#  c #382F34",
"$  c #423C15",
"%  c #443B2D",
"&  c #44372B",
"*  c #4B3D33",
"=  c #453837",
"-  c #493436",
";  c #3D4414",
":  c #3F452B",
">  c #454A17",
",  c #44500F",
"<  c #5D7B04",
"1  c #647C07",
"2  c #6A7E17",
"3  c #474629",
"4  c #51472D",
"5  c #4D4238",
"6  c #524436",
"7  c #53443B",
"8  c #55493C",
"9  c #5B4B3C",
"0  c #594B33",
"q  c #5A5338",
"w  c #56562A",
"e  c #62573B",
"r  c #76773A",
"t  c #6D7030",
"y  c #5B6239",
"u  c #4C3A46",
"i  c #544642",
"p  c #5B4B42",
"a  c #584846",
"s  c #5E5545",
"d  c #5E5158",
"f  c #625244",
"g  c #6B5B44",
"h  c #65554B",
"j  c #6B5B4C",
"k  c #665949",
"l  c #6D5C52",
"z  c #675756",
"x  c #735F57",
"c  c #6A5548",
"v  c #696548",
"b  c #73634C",
"n  c #79664D",
"m  c #786A4B",
"M  c #777647",
"N  c #6F6158",
"B  c #746353",
"V  c #796753",
"C  c #7B6B55",
"Z  c #766559",
"A  c #796659",
"S  c #7C6B5B",
"D  c #756B55",
"F  c #7B7256",
"G  c #7B6963",
"H  c #7C6E6E",
"J  c #6E5A63",
"K  c #816C59",
"L  c #83735D",
"P  c #86785B",
"I  c #80724D",
"U  c #837462",
"Y  c #8C7C6A",
"T  c #887866",
"R  c #907F6C",
"E  c #8A766D",
"W  c #648401",
"Q  c #6A8502",
"!  c #658B01",
"~  c #6B8C02",
"^  c #6D8D0A",
"/  c #65860B",
"(  c #718D01",
")  c #738A0C",
"_  c #669201",
"`  c #6C9301",
"'  c #6D9A02",
"]  c #6C930A",
"[  c #6A970A",
"{  c #739402",
"}  c #749B01",
"|  c #7A9D02",
" . c #73940C",
".. c #759B0B",
"X. c #7B9D0B",
"o. c #79950A",
"O. c #6C8816",
"+. c #738D12",
"@. c #778A18",
"#. c #6D9510",
"$. c #759314",
"%. c #759B13",
"&. c #7B9C12",
"*. c #7B9618",
"=. c #75A201",
"-. c #7CA302",
";. c #7DA901",
":. c #7DA30B",
">. c #7DA90A",
",. c #76A407",
"<. c #7CA312",
"1. c #7DA614",
"2. c #73A903",
"3. c #778927",
"4. c #7C9625",
"5. c #778C35",
"6. c #7C9635",
"7. c #798941",
"8. c #809D0B",
"9. c #829D14",
"0. c #829C1C",
"q. c #879B18",
"w. c #81A503",
"e. c #84AB02",
"r. c #89AD03",
"t. c #82A50B",
"y. c #84AB0C",
"u. c #8AAD0B",
"i. c #8AA307",
"p. c #90AD06",
"a. c #85B101",
"s. c #8CB302",
"d. c #8EB902",
"f. c #8CB30B",
"g. c #89B50B",
"h. c #92B502",
"j. c #93BB02",
"k. c #99BC04",
"l. c #92B40C",
"z. c #94BB0B",
"x. c #99BA0B",
"c. c #83A413",
"v. c #89A514",
"b. c #85AB13",
"n. c #8BAC12",
"m. c #89A61B",
"M. c #92AC16",
"N. c #8CB313",
"B. c #89B514",
"V. c #92B512",
"C. c #94BA13",
"Z. c #9AB51B",
"A. c #98B71A",
"S. c #859928",
"D. c #8A9D3C",
"F. c #849837",
"G. c #90992E",
"H. c #8CAB24",
"J. c #89A427",
"K. c #92AB2A",
"L. c #95AB25",
"P. c #99B627",
"I. c #8CA437",
"U. c #94A839",
"Y. c #9BB336",
"T. c #8CB223",
"R. c #A2BB2A",
"E. c #A4BC3C",
"W. c #A0BA1B",
"Q. c #94C101",
"!. c #9AC303",
"~. c #9AC10A",
"^. c #96C30B",
"/. c #98C113",
"(. c #8EC000",
"). c #A7C132",
"_. c #A2C11D",
"`. c #8C9C4C",
"'. c #879945",
"]. c #919D4B",
"[. c #8D9055",
"{. c #8EA447",
"}. c #96AB4B",
"|. c #95A848",
" X c #9CB248",
".X c #98A856",
"XX c #9CB256",
"oX c #8FB048",
"OX c #A5B848",
"+X c #A1AD5B",
"@X c #A8B858",
"#X c #B2BD5A",
"$X c #8E806B",
"%X c #94856C",
"&X c #9B8B6E",
"*X c #97876A",
"=X c #968572",
"-X c #9C8C74",
";X c #9B8C79",
":X c #988774",
">X c #9E9276",
",X c #96916D",
"<X c #A18D6F",
"1X c #A18E77",
"2X c #A29376",
"3X c #A4947C",
"4X c #A8987E",
"5X c #A2906A",
"6X c #9AA966",
"7X c #9EB26E",
"8X c #A5AC65",
"9X c #ACBB63",
"0X c #ACBA6B",
"qX c #A7B368",
"wX c #B1BC66",
"eX c #B2BC6C",
"rX c #B9BC6A",
"tX c #A8A976",
"yX c #ACB973",
"uX c #ADB57A",
"iX c #AAB576",
"pX c #B3BC74",
"aX c #B4BB7B",
"sX c #BBBC7C",
"dX c #B5B879",
"fX c #B1A17F",
"gX c #AAC04E",
"hX c #AEC457",
"jX c #B6C25C",
"kX c #B4C26C",
"lX c #B7C466",
"zX c #B6C17D",
"xX c #BAC37B",
"cX c #B9C474",
"vX c #ACC067",
"bX c #C2C979",
"nX c #968785",
"mX c #9D9383",
"MX c #A59583",
"NX c #AC9C84",
"BX c #AE9E8A",
"VX c #A79884",
"CX c #AFA289",
"ZX c #B4A48B",
"AX c #B8A88B",
"SX c #ADB984",
"DX c #B4BB82",
"FX c #B7BD8A",
"GX c #B8A892",
"HX c #B0B690",
"JX c #B6C183",
"KX c #BBC381",
"LX c #BBC489",
"PX c #BDC49A",
"IX c #C1C683",
/* pixels */
"h.{ 6.iXtXqX`.F.qX8XqXL.e.=.} l.f.{ ` ' >.=.=.f.i.{ ! <.b.| } f.s.{ ..' 2.=.| d.y.^ ~ -.r.:.{ d.s...] ..>.} -.g.r.{ ~ X.n.| } f.",
"0.e.P.zXeXbX8XF.xXeXDX}.-.a.r.8.w.N.y.' >.-.{ f.v.| | e.-.s.s.-.n.f.-.! <.-.} N.w...<.t.} B.b.w.-.V.w.` t.-.} s.v.X.| w.-.r.u.-.",
"^ -.H.kXaXcX XI.zXkXDX}.} w.u.| ~ } } } -.C.j.j.j.s.s.f.-.t.y.-./ } -.:.<.d.d.z.j.d.a.s.-.t.B.| ^ | } } -.z.j.j.j.r.u.N.| t.y.X.",
"-.X.w._.9XiXU.Z.uXqX8XJ.~ ~ ] w.8.| f./.e.l.~.h.k.s.;.:. .~ ` :.:.-.e.z.e.d.!.j.V.f.r.:.` ! ` c.&.-.s.C.e.d.!.d.j.s.-.:.{ ` ` t.",
"Q.l.P.h.h.I.'.v.5.@.F.Z.r.t.| a.k.z.e.f.f.u.w.v.)  ...} -.| -.e.Q.z.e.d.j.f.:.t.o.~ -.} :.y.{ n.!.z.r.d.d.u.:.b.^ ..} -.-.-.-.r.",
"j.A.0X@Xk.P.yXwXuXD.XXkX@X9XP.g.j.z.} -.V.e.~ Q ~ } u.u.-.| f.s.j.C.:.} f.e.~ +.@.9.z.z.-.} r.j.j.f.| -.z.y.! ! ( } n.B.-.| u.f.",
"P.hXaXJXXX{.aXpXaXF.XXKXuXDXI.=.>.-.` _ ` } f.l.j.h.d.-.{ W { e.t.{ .._ } w.n.P.0XkXE.N.| < X.-.w.| } _ ` -.f.l.k.h.l.:. .W { :.",
"I.kX8XkX|.`.xXeXcX].6XkXlXsX3._ ,.=.>.1...` u.e.u.z.a.-.n.&.~ ` w.{ n.:.` { y.P.@XFXLXJ.e.-.W $.X.} e.<. .} r.e.h.z.s.} N.o.~ ~ ",
"N.~.z.P.A.P.@X.X6XF.F.6XiX.X+.e.l.z.d.u.l.p.e._ 9.j.l.-.X.| Q r.C.j.d.r.A.A.:.7XLXpXzXJ.-.} ! M.^.d.f.n.x.u.y.] -.z.B.| w...~ e.",
"Q.e.s.k.h.h.l.o.&.} -...&./ $.s.x.a.d.j.k.h.l.=.;.C.>.;.>.! ^ g.l.d.d.j.h.h.h.m.OX X|.9.&.] ^ e.d.f.j.h.h.h.s.=.e.d.;.b.:.! o.a.",
";.-.N.u.( +.X.w.} y.} -.=.-...-.c.| r.t.X.{ | ..' ,.' } :.} -.=.| -.n.u.S.U.OX].S.H.{.I.I.&.K.Y.L.U.f.K.'.}.K.:.' ;.} } -.} :...",
"/ ..w.e.e...~ ` =.<. .` s.d.f.-.e.d.C.t.c...~ ] %.-.-.( u.h.| Q { } 1.} oXJXxXKX`.XXJXSXiXI.0XHXdXqXJ.@XY.hX6X^ ' w.| ` a.j.} / ",
"z.z.}  .e.a.e.;.a.s.| W X.r.!.k.Q.d.X.~ -.a.e.e.r.h.| 1 X.t.-.y.h.f.:._ }.FXiXyX{.|.xXwXeXF.qXpXpXpX'.qXe.r.}.t.d.f.X.W o.s.e.-.",
"d.s.-.-.{ } f.H.P.E.J.@.F.U.V.r.a.H.{.I.1.} c.&.M.T.} _ _ } j.y.u.v.o.o.].tXxXxX|.`.DXpXDXD.+XIXkX0X'.SXhX@X+X| e.u.| ` ! | ~.s.",
"w.-.-.y.%.o.h.!.#XaXpX'.aXJXlXK.e.Y.lXhXK.4.0XaXqX.X-.a.=.X.m.r m F D r m F [.[.6.F.].U.`.3.S.`.`.'.$.U.I.'.'.` ~ o.;.s.:.:.C.e.",
"] _ ` } |  .0.R.R.pXyXq.Y.aXuX8XD.pXsX@XU.D.pXdXcX.X .} X.M C =X-X:XMX<X%X%Xr F `..XK.l. XqX.X4.5.F.I.K.w.) X.a.>.] ` ;.>.} ` e.",
"u.{ _ ' g.} +.@XaXzXaXK.R.yXkX).P.pXsXzXoX<.0XsXrXjXQ ) L 1X%XU S :X%X-X3X*X%X%XP tXqX}.cXxXpX.X].LXpXwXT.} } d.t.{ ! X.n.| } N.",
"w.u.n.' ' :.X.H.Y.6XU.S.U.A.M.c.*.Z.OX`.4.;.6X@X.XI.*.t VX3X<X$X%XC V *X&X-XVX;XnXi .X.XaXqXzX].{.JXpX0XI.| -.u.e.-.=.:.-.r.s.-.",
"~ { -.| -.z.j.d.h.u.V.0.J.r.v.S.S.u.r.X.t.J.t.r.b.;.<.v 2X4X<X-X%X%X%X&X-XBXMXS s 3 '.[.0XlXLXU.`.yXjXlX Xl.j.j.j.s.a.f.-.w.y.-.",
"m.:.e.h.s.d.s.~.x.Z.#XHXqX'.tXiXuXOXd.).lXwXk./.Q.Q.q.q I AXGXNX3X-X2XVXZXVXU p 7 0 q.i.m.P.0.c.6.U.M.A.N.j.j.k.z.s.-.:.` ~ ` c.",
"j.j.r.h.h.s.| <.{ 6XeXDX#XM.pXaXlX@Xb.@XwXjXY.| q.2 M b A K =XNXZXNXZXNXU f 6 9 p 9 v t q.r.} u.z.z.r.s.j.f.X.| ~ o...:.X.-.-.r.",
"Q.d.| | y.u.{ W ) 9XlXwX#XK.eXFXIXyX'.vXwXFX8X2 t C nX&XU b S U %X3XY k p 9 8 6 p E =X=XH v m.s.Q.d.X.| s.t.( ( ~ } y.B.-.| r.d.",
"w.-.} ` } | u.l.s.k.P.+X8X7.F.XX6XF.$. X.X.XG.r &X=X-X2XY L B Z C T h 6 8 7 7 k K [.*X&XR %Xr @.-.|  .~ } :.e.n.k.d.d.-.{ ! { t.",
"&.| w.-.} ` y.w.d.j.r.{ H.o.W ! *.F.N.T.5.Q T ;X;X;XfX;X&XY K K S B 9 p p f U Y :XnX*X1X=X5XT 4 O.} r.;.] ..e.y.h.z.s.} M.o.~ ~ ",
"Q.d.z.r.h.k.-._ -./.f.-.-.o.~ e.H.JXxXzXY.y mX&X-X%X2X&X-X-X%X%XS V f f S %X%X-X-X*X&X&X2XY a @ 3 v.j.j.l.d.t.` -.!.u.X.-.} Q e.",
"d.f.f.x.l.l.C.:.y.a.e.y...] ] a.l.9XuX#XL.v ;X&X-X%X-X3XZXZX2X%X-X=XR R =X-X-X-X-X-X2XNX-Xf O @ o 8.y.s.z.u.^...-.d.:.w.-./ } f.",
"| :.e.a.} ~ | } %.-.=.} } -.....m.OXhXgX'.b 3XAXNXNXAXNX3X-X-X-X-X-X-X;X-X-X-X%X3X-X3XMXl & = O   ; t.s.} { } } -.-.{.U.H.K.....",
"( -.e.>.y.| ~ } ` y...` s.z.| / @.J.:.*.v g T *XZXZXZX2X%X-X4X4X%X-X-X%X-X2X-X%XL L B h 7 % O O & + 0.-.u.o.~ } } -.jX9XR.A. .! ",
"l.d.=.` -.u.c.y.d.l...W { r.r.t.u.f.%.~ e B C A L %XVXNX-X-X-X%X4X4X%XL L P T %X3XZ f * % * * 6 @   { #.=.a.n.-.r.z.#XaX@XZ.u.e.",
"h.N.=.=.} | f.| w.w.y.{ ~ w.z.r.Q.j.t.+.q b Z G C S Y VX1X=XT V V P Y %X%X%X-XNXVX9 p 8 * B $XY T 3 $.X.} { z.-.t.s.OX9XpX@Xj.r.",
"e.:.=.y.o.{ z.z.-...w.;.| :.C.u.>.| ( r l m A n B B B A f b Y -X-X%X-X&X%X2XNXMXl 8 8 * Z %X&X&X*XP 3 { J.}.l.z.<.} n.e.t.H.e.N.",
"] _ _ <.8.{ | j.a.` _ -.n.} ' -.[ O.P :X*X%XU K Z S B l f T BXNX;X=X-X-X-XBX3Xj i 7 7 6 :X3X2X<X;X&XnX> .XkX9Xj.a._ / 1.;._ %.} ",
"e.} _ ..u.} } d.r.Q Q t.a.=.{ N.G.M =X-X*X&X%X=XT S l 9 j S K NXGXNX4XVXGXmXk 9 7 p 7 7 Z BXCXCXVXNX4X4 @.OX9Xl.i. ./ X.s.} ..n.",
"t.N.y.` o.| -.u.-.t.X.o.:.s.u.o.r *XVX4X&X&X%X&X-XT S f j Z B L -XNXAXVXS j p 7 p * * j S S L NXAXNXf u 3 XXXXY.8.-.| :.-.r.s.-.",
"^ | } { :.z.j.j.C.d.s.f.y.e.9.M >XZX-X%X&X-X-X&X%X2X=XU 6 B S l n L %XL 9 8 7 p f Z A B Z B C C S S 9 7 > v.j.l.V.d.a.f.| e.r.X.",
"X.-.a./.d.j.j.j.z.s.e.-._ ~ Q s :XGX3X2X&X&X-X&X&X-X=X;X9 j S B S B V 9 7 p p S Y %X%X=X=XC V b n j a 5 . m.k.l.V.M.-.-.$.~ _ -.",
"!.j.s.d.a.f.y.w. .} X.-.:.9.@.e Z -XfXNX-X;X-X*X&X3X3XS 8 * l B l l B 9 p p Z %X=X>X-X=X-XR Y S B 9 a 8 % G.).R.9X.X..} -.&.-.a.",
"j.V.| =.f.b.~ ! ^ { :.e.e.) t B A C <XCXVX3X-X;XNXNXS 5 p * 6 f h h f 9 7 f 4X2X-X-X-X-X-X-X3X;XE q p 7 5 3 iXyXcX Xb.e.-.-.u.B.",
"t.:.` _ ..| t.C.h.~.C...` 1 w l B b %XMXBX2X2XVXMXU 9 8 p & 6 Y %XL g f 6 j MXNXGXAXAXZXAXGXCXMXS 9 7 a 5   Y.R.V.z.C.m...< ` ;.",
"X.} r.<.] } f.e.u.h.d.| r.o.q x l S Y G ;XfXAXBXU 9 8 5 7 8 U ;X&X%X$XU h B V -XZX3X>X2X3XVXL e a 8 0 i = + 0.0.p.k.r.} f.} ~ _ ",
"j.Q.d.h.h.h.y._ ;.j.s.X.-. .q x B Y S n n Y MXm 9 p i * 9 P -X-X>X%X;X-XR U C V %XNX4XCX;XB p 7 a 8 7 i = o ~ O.| z.d.-.| &.! e.",
"j.u.V.z.h.l.f.1.1.C.w.y.;.W q g G %Xm B G S :Xh 6 i * h U &X%X-XCX-X&X%X-X%XL S L -X3XF k 7 7 8 X a i 4 & X , $.e.f.-.b.| ~ o.s.",
"t.| s.e.o.{ } } ..| | } -.^ 0 G m Y G A S V H a 8 * p :X-X-X-X=X-X%X3X-X%X-XT 7 g C %Xq 8 7 8 7   6 p i - % . { ..:.} =.-.} %...",
"( -.e.>.b.&.~ } =.-.t.~ u.n., z $XL B b n S s 8 7 7 6 3XNX4X%X-XS K &X*X*X4X:X7 B Z T k 8 7 8 7 % % 6 u - & . ~ { t.| ` e.z.} ~ ",
"p.z.} ` ;.e.n.t.u.j.| W -.e.Q w G C m B x E e 4 a % 5 =XZXNXY S &X*X%X>XZX:Xl * h Z L U p 7 7 i = @ 7 & & . >  .s.s.| W ..s.e.w.",
"h.N.-.-.} | f.| c.s.} ~ ! -.~. .w q z G G L f = = X j S b b 3XGX4XNXNXZXMXB 7 7 * B Z Y f 8 i 8 5 . 5 @ X 3 o.w.e.r.-.^ ~ | !.V.",
"y.-.=.e. .o.l.z.&.} b.y.-.-.d.a.+., % s g 4 & = @ 5 Z B l h C =XZXGXNX:Xj 7 7 8 7 B B A p 7 p 7 7   X o ; < x.j.} ..y.a.y.-.l.-.",
"` _ _ &.X.( -.j.r.} _ =.a.{ ' ,._ < O.> X O O O O X k B f l Z C *X%Xk p 7 p 7 6 % f Z Z j 7 p 5 - . o 2 $.{ | j.g.] ` =.y...' ;.",
"y.} ] <.e.} } z.w. .W X.e.r.X.s.M.{ ] _  .; O $ o . l b q Z N Z F Y a 8 8 i * * . * e j z * 8 + 3 1 ^ ` a.} ..d.u.~ ^ -.;.:.{ n.",
"y.z.;._ :.>.} t.S.U.I.K.u.A.K.P.P.d.;.[ .. .+.c.) X J e B N b n Z U g 7 i 7 * O =   3 % $ % > ) w.l.:._ =.-.-.w.*.n.r.w.| s.d.-.",
"! } =.} <.<.-.-.8XLXzXeXS.OXuXJX7X%.=.=.=.Q.j.g.s.> d h z l n V x T Y p 7 % O @ > X.w.0.{ { &.} ~ ..} =.:.<.:.T.DXOXL.H.c.e.e.| ",
"y.-.r.z.s.=.-.a.+XaX0XaX5.6XLXgXkXJ.e.k.r.z.j.j.l.0.> 5 v b A B n n P 0 * = X > } n.<.<.` ~ ^ e.&.y.e.z.B.| } Z.pXpXxX}./ ~ ` c.",
"z.z.e.u.j.w.$.| qXFX0X@Xv.U.gXu.k.C.r.s.x.l.-.<.~ ~ 3.; 3 z z g x B F 6 . @ > O.$.{ -.=.=.e.-.n.k.~.s.s.j.s.X.I.aXaXkXK.| w.-.e.",
"C.z.-.X.r.e.X.! S.+XOXJ.s.9.P.f.j.j.:.X.a.e.{ W +.o.-.| 4.> o 3 o   3 + 3 t Q Q ~ | -.e.b.o.y.f.j.f.X.} e.e.+.5.8X@XE.A.w.} e.j.",
"w.} ` } X.w.x.M.*.9.h.4.*.3.~ e.n.| [ ] ] t.l.l.h.j.j.-.~ 1 +.{ o.+.O.2 W -.d.d.h.~.j.-.} ~ { ;.e.| } } %.X.e.f.r.z.N.%.+./ { | ",
"c.XXY.P.6X`.OXkXSXD.Z.kXP.OX3.6XDXiXA.e.{.DXOX@XZ.j.b.%.f.} W #.=.=.-.y.} ] :.e.d.j.e.X.r.| W _ -. .e.;.#.` a.;.z.s.f.-.e.-.!  .",
"K.zXdXaX8X}.sXsXxX.X].KXOX#X3.6XsXcX9XG.wXsXrXaXc./.f.| -. .^ r.(.^.l.p.h.h.y._ -.j.B.=.-. .W s.z.z.j.d.z.d.w.` -.^.r.-.-. .+.e.",
"A.@XDXFX XY.JXDXwXI.}.LXaXaXS. XsXaXSXF. XaXaXDXH.s.e.y.-.^ ] s.d.r.l.z.h.l.f.:.w.z.-.;.;._ } w.d.d.j.d.s.V.V.-.a.f.f.y.X._ } e.",
"9.I.@XOXl.h.Y.+XU.8.J.}.}..X*.`.rX.X XH.A.gXtX.X4.-.} ' =.} %.:.:.| u.e.o.{ ` ..%.} ` ` ` ` } :.c.} e.s.} ~  .....} } } =.-...X.",
"~ X.e.-.b.f.e.r.r.k.v.S.l.V.J.tXsX}.e.;.a.s.4.~ ^ w.X.{ d.j.| ! ( -.t.c.b.X.~ { X.| K.|..XXXF..XuX XK.S.'.{.}.D...;.| ] s.z...! ",
"d.j.X. .w.s.y.&.K.E.lXPX0.c.cXJXdXyX:._ ;.s.f.e.z.l.X.< } e.r.e.s.z.} ` ;.e.y.e.s.j.OXKXJXLX6XyXcXpX9X'.uXDXkXP.f.z.X.< ` e.r.e.",
"A.d.-.-.} } r.} }.lX#XSX4...XXR.E. X6.=.`  .d.e.e.e.y.` ~ | z.s.d.N.-.-.} | f.-.-.w.|.uXeXaX`.@X#XdXyXI.wXiXwXW.r.e.|  .{ -.l.s.",
"-.-.:.u.X.} j.d..XDXrXeX*.! I.Y.;.} 4.n.| ^ V.f.} } u.;.-.:.N.e.>.<.-.t...{ V.C.y.{ .XyXpXDX[..XaXFXqXS.OXaXzXOXC.f.-.e.;.-.N.u.",
" .` _ =.} ) 8.f.u.[.[.{.<.' %.7./ ..` { t.{ X.j.g.` ` =.b.' } ;.` _ ` :.:.{ | d.g.~ O.S.S.3.4.O.3.3.*.4.J.D.I.I.r.d.} ,.;.` <.=."
};
